<?xml version="1.0" standalone="no"?>
<!DOCTYPE svg PUBLIC "-//W3C//DTD SVG 1.1//EN" "http://www.w3.org/Graphics/SVG/1.1/DTD/svg11.dtd" >
<svg xmlns="http://www.w3.org/2000/svg">
<metadata></metadata>
<defs>
<font id="arial_rounded_mt_pro_cyrRg" horiz-adv-x="1153" >
<font-face units-per-em="2048" ascent="1511" descent="-537" />
<missing-glyph horiz-adv-x="577" />
<glyph unicode="&#xfb01;" horiz-adv-x="1095" d="M4 997q0 63 102 64h93v100q0 207 100 283q61 47 190 47q197 0 197 -86q0 -68 -59 -68l-97 11q-96 0 -129 -56q-25 -41 -24 -147v-84h110q109 0 109 -64q0 -68 -109 -67h-110v-809q0 -76 -17 -109q-20 -37 -73 -37q-88 0 -88 146v809h-97q-98 0 -98 67zM750 1362 q0 41 28 70q31 29 72 28q41 1 70 -28t28 -70q0 -41 -28 -72q-29 -29 -70 -28q-41 0 -72 28q-29 31 -28 72zM762 121v819q0 84 18 115t70 30q90 0 90 -145v-819q0 -84 -22 -117q-20 -29 -70 -29q-86 0 -86 146z" />
<glyph unicode="&#xfb02;" horiz-adv-x="1095" d="M4 997q0 63 102 64h93v100q0 207 100 283q61 47 190 47q197 0 197 -86q0 -68 -59 -68l-97 11q-96 0 -129 -56q-25 -41 -24 -147v-84h110q109 0 109 -64q0 -68 -109 -67h-110v-809q0 -76 -17 -109q-20 -37 -73 -37q-88 0 -88 146v809h-97q-98 0 -98 67zM762 121v1222 q0 147 88 148q51 0 70 -29q20 -31 20 -119v-1222q0 -145 -88 -146q-45 0 -61 21q-29 31 -29 125z" />
<glyph horiz-adv-x="2048" />
<glyph horiz-adv-x="2048" />
<glyph unicode="&#xd;" horiz-adv-x="2048" />
<glyph unicode=" "  horiz-adv-x="577" />
<glyph unicode="&#x09;" horiz-adv-x="577" />
<glyph unicode="&#xa0;" horiz-adv-x="577" />
<glyph unicode="!" horiz-adv-x="681" d="M227 88q0 47 33 80t80 33t80 -33t33 -80q0 -45 -33 -80q-33 -33 -80 -33t-80 33t-33 80zM242 1128q-10 221 2 279q16 84 96 84q82 0 98 -84q12 -63 2 -279l-30 -596q-4 -66 -13 -88q-14 -39 -55 -38q-43 0 -57 38q-8 23 -13 88z" />
<glyph unicode="&#x22;" horiz-adv-x="724" d="M94 1227v239h205v-239l-45 -281h-111zM426 1227v239h205v-239l-47 -281h-109z" />
<glyph unicode="#" horiz-adv-x="1130" d="M20 471q0 53 27 68q16 8 74 8h98l76 368h-174q-53 0 -70 9q-31 12 -31 59q0 53 27 68q16 10 74 10h203l69 342q12 55 23 70q16 18 61 18q70 0 70 -57q0 -10 -8 -54l-64 -319h313l70 342q12 55 23 70q16 18 63 18q70 0 70 -57l-74 -373h74q53 0 71 -8q29 -14 29 -60 q0 -55 -27 -69q-16 -8 -73 -9h-105l-73 -368h178q53 0 71 -8q29 -12 29 -58q0 -55 -27 -69q-16 -10 -73 -11h-209l-68 -340q-10 -53 -22 -67q-16 -18 -64 -19q-70 0 -69 58q0 18 8 53l65 315h-315l-70 -340q-10 -53 -20 -67q-16 -18 -64 -19q-70 0 -69 58q0 18 8 53l65 315 h-69q-51 0 -70 9q-31 14 -31 61zM371 547h313l76 368h-316z" />
<glyph unicode="$" d="M78 379q0 37 28 61q25 25 58 25q63 0 86 -76q74 -244 272 -272v569q-164 43 -250 92q-164 94 -163 314q0 211 155 315q94 63 258 82v106q0 78 53 78q51 0 52 -76v-108q195 -23 293 -135q92 -106 92 -201q0 -27 -21 -51q-27 -29 -65 -29q-55 0 -86 76q-74 178 -213 197 v-515q244 -78 313 -139q121 -104 121 -282q0 -119 -57 -220q-106 -186 -377 -213v-243q0 -113 -52 -113q-37 0 -47 31q-6 18 -6 86v237q-225 14 -350 166q-94 117 -94 238zM276 1102q0 -111 80 -170q49 -39 164 -72l2 490q-78 0 -147 -45q-98 -68 -99 -203zM627 113 q266 45 266 278q0 121 -88 187q-51 39 -178 79v-544z" />
<glyph unicode="%" horiz-adv-x="1705" d="M45 1090q0 380 295 380q297 0 297 -364q0 -397 -297 -397q-295 0 -295 381zM176 1090q0 -285 166 -285q94 0 131 78q33 68 33 217q0 274 -164 274q-166 0 -166 -284zM313 -6q0 25 23 53l930 1374q47 68 75 68q53 0 54 -53q0 -23 -39 -76l-926 -1368q-31 -45 -61 -45 q-23 0 -39 18q-16 14 -17 29zM1069 369q0 381 295 381q297 0 297 -365q0 -397 -297 -397q-295 0 -295 381zM1200 369q0 -285 166 -285q94 0 131 78q33 68 33 217q0 274 -164 274q-166 0 -166 -284z" />
<glyph unicode="&#x26;" horiz-adv-x="1429" d="M115 403q0 156 114 273q70 70 230 158q-156 199 -156 325q0 127 88 223q102 109 275 109q176 0 276 -115q78 -94 78 -209q0 -199 -307 -362q195 -240 299 -350l96 211q29 53 72 53q35 0 59 -23q25 -25 25 -59q0 -82 -129 -307q86 -88 192 -180q53 -47 53 -84 q0 -41 -30 -68q-25 -23 -56 -23q-43 0 -143 88q-43 37 -125 119q-174 -207 -426 -207q-231 0 -369 146q-117 123 -116 282zM301 422q0 -115 84 -205q88 -96 213 -96q168 0 307 182q-188 190 -354 414q-250 -141 -250 -295zM481 1176q0 -66 51 -144q29 -35 86 -114 q232 129 232 256q0 74 -51 124q-51 53 -131 54q-80 0 -136 -56q-51 -51 -51 -120z" />
<glyph unicode="'" horiz-adv-x="385" d="M90 1221v245h205v-245l-47 -275h-113z" />
<glyph unicode="(" horiz-adv-x="704" d="M150 530q-1 439 280 859q70 102 129 102q41 0 41 -18q0 -8 -20 -48q-129 -246 -199 -483q-53 -182 -53 -412q0 -403 241 -878l27 -51q4 -6 4 -13q0 -18 -37 -18q-74 0 -170 162q-244 406 -243 798z" />
<glyph unicode=")" horiz-adv-x="704" d="M104 -412q0 8 21 47q129 246 199 484q53 182 53 411q0 403 -242 879q-27 55 -26 51q-4 6 -5 13q0 18 37 18q74 0 170 -162q244 -406 244 -799q0 -438 -281 -858q-70 -102 -129 -102q-41 0 -41 18z" />
<glyph unicode="*" horiz-adv-x="831" d="M57 1260q0 63 60 63q29 0 256 -102q-23 203 -23 245q0 68 66 68q63 0 63 -72l-18 -241l82 39q70 33 82 36q53 27 90 27q59 0 59 -63q0 -39 -45 -60q-53 -25 -240 -61q180 -201 181 -230q0 -63 -66 -63q-35 0 -72 53q-68 96 -116 188q-123 -209 -142 -227q-14 -14 -38 -14 q-31 0 -50 22q-18 18 -18 39q0 47 178 232l-143 30q-145 31 -146 91z" />
<glyph unicode="+" horiz-adv-x="1193" d="M113 639v168h401v401h168v-401h401v-168h-401v-401h-168v401h-401z" />
<glyph unicode="," horiz-adv-x="491" d="M127 88q0 49 35 84q35 33 84 33q125 0 125 -168q0 -119 -56 -213q-55 -90 -116 -90q-47 0 -47 51q0 23 41 61q51 51 53 129q-53 2 -86 35t-33 78z" />
<glyph unicode="-" horiz-adv-x="681" d="M43 512q0 84 141 84h314q141 0 141 -84t-141 -84h-314q-141 0 -141 84z" />
<glyph unicode="." horiz-adv-x="491" d="M133 88q0 47 33 80t80 33t80 -33t32 -80q0 -45 -32 -80q-33 -33 -80 -33t-80 33t-33 80z" />
<glyph unicode="/" horiz-adv-x="575" d="M23 31q0 8 12 59l371 1319q14 53 26 66q14 16 62 16q59 0 59 -57q0 -4 -12 -58l-371 -1319q-14 -53 -27 -65q-14 -16 -61 -17q-59 0 -59 56z" />
<glyph unicode="0" d="M94 721q1 412 144 590q123 156 340 155q221 0 337 -155q143 -193 144 -557q0 -440 -144 -623q-121 -156 -340 -156q-221 0 -337 156q-143 190 -144 590zM276 721q1 -291 58 -432q72 -174 244 -174t241 174q57 139 58 432q0 291 -58 432q-70 174 -241 174 q-172 0 -242 -172q-59 -141 -60 -434z" />
<glyph unicode="1" d="M176 1026q0 47 88 88q223 98 344 289q43 63 80 63q80 0 80 -135v-1218q0 -137 -90 -138q-88 0 -88 123v1065q-252 -211 -348 -211q-66 0 -66 74z" />
<glyph unicode="2" d="M94 90q0 147 271 379q61 53 210 172q293 236 293 412q0 129 -88 204q-82 70 -196 70q-231 0 -291 -211q-33 -123 -98 -123q-76 0 -76 80q0 137 112 254q133 139 351 139q272 0 391 -168q78 -106 78 -241q0 -158 -117 -299q-76 -90 -301 -271q-260 -207 -316 -325h609 q150 0 149 -80q0 -55 -47 -72q-29 -10 -100 -10h-711q-123 0 -123 90z" />
<glyph unicode="3" d="M102 369q0 27 23 49q25 23 59 22q57 0 82 -84q76 -242 299 -241q141 0 232 100q84 90 84 215q0 111 -66 191q-78 92 -213 92l-119 -11q-78 0 -77 70q0 76 98 76q96 0 162 26q147 59 147 220q0 92 -61 159q-70 80 -187 80q-180 0 -258 -178q-33 -74 -43 -88 q-16 -20 -53 -20q-76 0 -76 75q0 96 92 201q127 143 346 143q193 0 310 -110q113 -104 112 -262q0 -186 -213 -306q281 -78 281 -354q0 -188 -119 -317q-129 -141 -352 -142q-242 0 -361 123q-129 135 -129 271z" />
<glyph unicode="4" d="M16 446q0 29 60 109l614 829q59 82 101 82q59 0 79 -45q10 -27 11 -98v-825h100q121 0 121 -76t-115 -76h-106v-231q0 -94 -25 -115q-25 -25 -59 -25q-57 0 -76 45q-10 29 -10 95v231h-531q-106 0 -131 25q-33 33 -33 75zM201 498h510v692z" />
<glyph unicode="5" d="M106 332q0 84 80 84q55 0 86 -74q96 -227 301 -227q154 0 242 118q74 100 74 238q0 160 -92 254q-86 88 -215 88q-152 0 -299 -139q-29 -29 -66 -29q-33 0 -57 25q-25 23 -25 53q0 10 8 59l99 541q14 84 45 107q27 18 108 18h510q125 0 125 -78q0 -80 -123 -80h-510 l-80 -436q158 98 299 98q193 0 324 -135t131 -334q0 -195 -125 -340q-143 -168 -387 -168q-293 0 -424 265q-29 53 -29 92z" />
<glyph unicode="6" d="M86 684q0 406 160 610q135 172 372 172q219 0 330 -143q72 -92 72 -174q0 -27 -21 -49q-25 -25 -59 -25q-61 0 -88 76q-66 180 -236 180q-201 0 -290 -225q-43 -106 -60 -367q152 193 371 193q193 0 315 -137q117 -131 117 -324q0 -199 -123 -340q-135 -156 -354 -156 q-274 0 -410 238q-96 168 -96 471zM293 471q0 -143 82 -246q88 -111 225 -110q127 0 207 104q78 100 78 246q0 152 -84 244q-80 84 -201 84q-109 0 -194 -68q-113 -90 -113 -254z" />
<glyph unicode="7" d="M78 1374q0 74 110 74h693q84 0 112 -10q47 -16 47 -74q0 -33 -82 -137q-375 -471 -469 -1149q-14 -102 -92 -103q-92 0 -92 109q0 217 131 551q115 301 393 657h-641q-111 0 -110 82z" />
<glyph unicode="8" d="M88 424q0 268 262 364q-209 96 -209 297q0 152 111 261q121 121 319 120q217 0 338 -129q98 -106 99 -252q0 -207 -205 -297q262 -100 262 -366q0 -184 -125 -309q-135 -137 -365 -138q-236 0 -368 142q-119 123 -119 307zM266 416q0 -145 96 -230q86 -76 213 -75 q127 0 213 73q98 84 99 232q0 139 -88 219q-86 78 -226 78q-133 0 -215 -74q-92 -80 -92 -223zM315 1083q0 -104 76 -170q72 -66 184 -65q111 0 185 65q74 66 74 170q0 94 -62 168q-74 84 -199 84q-110 1 -184 -73t-74 -179z" />
<glyph unicode="9" d="M78 971q0 199 123 340q135 156 354 155q274 0 410 -237q96 -168 96 -471q0 -406 -160 -611q-135 -172 -373 -172q-219 0 -329 144q-72 92 -72 174q0 27 20 49q25 25 60 25q61 0 88 -76q66 -180 235 -180q201 0 291 225q43 106 60 366q-152 -192 -371 -192 q-193 0 -315 137q-117 131 -117 324zM262 977q0 -152 84 -244q80 -84 201 -84q109 0 194 70q113 88 113 252q0 143 -82 246q-88 111 -225 110q-127 0 -207 -104q-78 -100 -78 -246z" />
<glyph unicode=":" horiz-adv-x="491" d="M133 88q0 47 33 80t80 33t80 -33t32 -80q0 -45 -32 -80q-33 -33 -80 -33t-80 33t-33 80zM133 973q0 47 33 80t80 32q47 1 80 -32t32 -80q0 -45 -32 -80q-33 -33 -80 -33t-80 33t-33 80z" />
<glyph unicode=";" horiz-adv-x="491" d="M127 88q0 49 35 84q35 33 84 33q125 0 125 -168q0 -119 -56 -213q-55 -90 -116 -90q-47 0 -47 51q0 23 41 61q51 51 53 129q-53 2 -86 35t-33 78zM131 973q0 47 33 80t80 32q47 1 80 -32t32 -80q0 -45 -32 -80q-33 -33 -80 -33t-80 33t-33 80z" />
<glyph unicode="&#x3c;" horiz-adv-x="1193" d="M113 637v168l970 414v-179l-768 -319l768 -315v-179z" />
<glyph unicode="=" horiz-adv-x="1193" d="M113 418v168h970v-168h-970zM113 862v168h970v-168h-970z" />
<glyph unicode="&#x3e;" horiz-adv-x="1193" d="M113 227v179l768 319l-768 315v179l970 -410v-168z" />
<glyph unicode="?" horiz-adv-x="1087" d="M98 1112q1 100 99 217q137 162 368 162q209 0 328 -125q106 -111 106 -266q0 -166 -202 -361q-123 -117 -150 -164q-25 -41 -37 -145q-8 -82 -84 -82q-86 0 -86 107q0 195 195 370q178 162 178 273q0 98 -72 168q-76 74 -188 73q-203 0 -268 -233q-31 -88 -95 -88 q-35 0 -61 22q-31 27 -31 72zM432 88q0 47 33 80t80 33t80 -33t32 -80q0 -45 -32 -80q-33 -33 -80 -33t-80 33t-33 80z" />
<glyph unicode="@" horiz-adv-x="2068" d="M111 467q0 375 213 661q270 362 776 363q403 0 643 -248q213 -221 213 -532q0 -225 -125 -416q-94 -141 -229 -227q-117 -74 -248 -74q-115 0 -160 59q-27 35 -33 109q-141 -166 -307 -166q-156 0 -260 131q-102 129 -102 317q0 233 153 433q160 205 365 204 q190 0 303 -182l35 156h178l-144 -672q-31 -133 -30 -156q0 -66 69 -65q104 0 234 147q154 174 153 406q0 276 -209 454q-205 174 -507 174q-375 0 -611 -258q-223 -244 -223 -602q0 -406 274 -604q227 -164 588 -164q498 0 705 303h180q-55 -111 -158 -198 q-291 -252 -725 -252q-508 0 -776 272q-236 240 -235 627zM676 432q0 -137 72 -219q59 -70 143 -70q137 0 250 152q115 154 114 352q0 137 -69 215q-63 72 -162 72q-158 0 -260 -186q-88 -156 -88 -316z" />
<glyph unicode="A" horiz-adv-x="1409" d="M39 61q0 29 29 103l464 1153q39 100 64 131q33 43 98 43q63 0 99 -41q23 -25 65 -131l481 -1147q31 -76 31 -106q0 -33 -27 -60q-31 -31 -71 -31q-45 0 -70 33q-16 18 -45 92l-131 324h-653l-127 -328q-29 -72 -43 -90q-25 -31 -70 -31q-39 0 -67 29q-27 25 -27 57z M428 582h539l-275 686z" />
<glyph unicode="B" horiz-adv-x="1409" d="M172 164v1139q0 111 27 137q26 26 129 26h8h422q197 0 297 -59q174 -102 174 -311q0 -221 -213 -322q282 -98 282 -358q0 -188 -118 -297q-131 -119 -387 -119h-457q-111 0 -137 27q-27 29 -27 137zM369 158h409q158 0 240 71q80 68 80 193q0 145 -119 213 q-84 45 -201 45h-409v-522zM369 838h374q129 0 209 61q84 63 84 176q0 156 -135 207q-70 27 -215 27h-317v-471z" />
<glyph unicode="C" horiz-adv-x="1492" d="M113 733q0 340 192 551q190 207 492 207q276 0 450 -182q127 -135 127 -238q0 -86 -80 -86q-57 0 -123 121q-55 106 -157 170q-92 57 -209 57q-193 0 -322 -123q-170 -160 -170 -485q0 -324 166 -477q125 -115 309 -115q313 0 426 322q31 84 89 84q84 0 83 -82 q0 -137 -133 -287q-170 -195 -446 -195q-319 0 -485 175q-209 219 -209 583z" />
<glyph unicode="D" horiz-adv-x="1492" d="M174 188v1115q0 111 29 137q26 26 129 26h8h356q358 0 525 -196q162 -195 161 -535q0 -444 -258 -629q-150 -106 -426 -106h-358q-117 0 -143 33q-23 29 -23 155zM371 158h301q268 0 391 145q119 141 119 422t-119 434q-115 150 -401 150h-291v-1151z" />
<glyph unicode="E" horiz-adv-x="1300" d="M178 164v1139q0 104 27 133q28 30 130 30h7h715q66 0 90 -8q45 -16 45 -69t-45 -70q-25 -10 -90 -10h-682v-471h626q131 0 132 -78q0 -53 -43 -70q-25 -10 -89 -10h-626v-522h710q66 0 91 -8q45 -16 45 -70q0 -53 -45 -70q-25 -10 -91 -10h-743q-104 0 -135 29 q-29 27 -29 135z" />
<glyph unicode="F" horiz-adv-x="1173" d="M172 137v1166q0 111 27 137q26 26 129 26h8h641q63 0 88 -8q45 -16 45 -69t-43 -70q-25 -10 -90 -10h-608v-480h505q131 0 132 -77q0 -80 -132 -80h-505v-535q0 -104 -27 -131q-31 -31 -72 -31t-73 29q-25 27 -25 133z" />
<glyph unicode="G" horiz-adv-x="1599" d="M109 727q0 326 176 533q199 231 565 231q307 0 473 -176q111 -119 111 -221q0 -86 -97 -86q-47 0 -96 88q-130 237 -405 237h-2q-250 0 -392 -170q-133 -162 -133 -424q0 -305 162 -467q139 -139 385 -139q225 0 430 137v318h-321q-68 0 -93 10q-45 16 -45 68 q0 79 114 79h3h369q98 -2 127 -24q33 -27 33 -117v-321q0 -94 -50 -129q-35 -35 -163 -93q-199 -86 -404 -86q-369 0 -567 224q-180 203 -180 528z" />
<glyph unicode="H" horiz-adv-x="1492" d="M166 137v1192q0 90 18 125q20 37 78 37q100 0 100 -162v-481h768v483q0 160 101 160q96 0 96 -160v-1196q0 -90 -20 -123q-20 -37 -76 -37q-100 0 -101 160v555h-768v-553q0 -86 -20 -123q-23 -39 -80 -39q-51 0 -72 33q-24 34 -24 122v7z" />
<glyph unicode="I" horiz-adv-x="598" d="M201 137v1192q0 88 18 123q23 39 80 39q98 0 98 -162v-1192q0 -88 -20 -123q-20 -39 -78 -39q-98 0 -98 162z" />
<glyph unicode="J" horiz-adv-x="1087" d="M53 391q0 98 92 98q47 0 66 -32q12 -23 31 -109q49 -215 233 -215q238 0 238 313v883q0 86 18 121q23 41 80 41q98 0 98 -162v-868q0 -195 -53 -297q-98 -188 -379 -189q-229 0 -340 144q-84 111 -84 272z" />
<glyph unicode="K" horiz-adv-x="1429" d="M178 137v1192q0 86 19 121q20 41 79 41q98 0 99 -162v-594l725 695q63 61 102 61t66 -27q25 -27 24 -57q-4 -49 -57 -98l-471 -435l524 -686q61 -76 62 -122q0 -39 -31 -66q-29 -25 -70 -25q-55 0 -131 105l-487 670l-256 -238v-418q0 -119 -96 -119q-53 0 -74 33 q-27 35 -27 129z" />
<glyph unicode="L" horiz-adv-x="1173" d="M172 164v1165q0 90 18 125q20 37 78 37q100 0 101 -162v-1171h620q66 0 92 -8q45 -18 45 -72q0 -53 -45 -70q-23 -8 -92 -8h-653q-111 0 -137 27q-27 27 -27 137z" />
<glyph unicode="M" horiz-adv-x="1712" d="M156 119v1184q0 163 145 163h2q98 0 125 -16q31 -18 61 -111l306 -911q41 -121 71 -217q18 59 78 235l303 887q33 96 56 115q23 18 114 18q94 0 119 -34q20 -27 20 -129v-1203q0 -125 -94 -125t-94 117v1135l-381 -1096q-33 -96 -51 -123q-25 -33 -76 -33q-55 0 -80 27 t-59 129l-377 1116v-1126q0 -145 -94 -146q-94 0 -94 144z" />
<glyph unicode="N" horiz-adv-x="1492" d="M166 133v1167q0 127 39 162q29 29 78 29q59 0 135 -115l727 -1085l-6 1042v20q0 66 12 91q20 47 80 47q41 0 69 -29q27 -25 27 -129v-1159q0 -135 -41 -170q-35 -29 -80 -29q-63 0 -143 119l-715 1067l8 -1028q0 -84 -12 -110q-20 -47 -82 -48q-41 0 -69 29 q-27 25 -27 129z" />
<glyph unicode="O" horiz-adv-x="1599" d="M104 733q0 295 144 498q184 260 555 260q358 0 543 -252q150 -205 149 -506q0 -311 -156 -516q-184 -242 -532 -242q-383 0 -565 269q-137 201 -138 489zM305 709q0 -260 146 -422q139 -154 348 -154q176 0 311 117q184 160 184 483q0 324 -184 484q-134 116 -308 116h-3 q-195 0 -342 -147q-152 -147 -152 -477z" />
<glyph unicode="P" horiz-adv-x="1300" d="M178 137v1166q0 115 33 141q26 22 137 22h10h351q229 0 344 -86q156 -117 155 -340q0 -268 -198 -370q-129 -68 -301 -68h-334v-465q0 -80 -15 -112q-23 -49 -84 -50q-43 0 -73 31q-25 25 -25 131zM375 760h282q350 0 351 276q0 123 -72 197q-72 76 -279 76h-282v-549z " />
<glyph unicode="Q" horiz-adv-x="1599" d="M104 733q0 295 144 498q182 260 551 260q381 0 563 -272q133 -203 133 -490q0 -346 -205 -569q66 -50 170 -107q90 -49 90 -90q0 -27 -20 -49q-23 -20 -47 -20q-68 0 -316 169q-170 -88 -370 -88q-352 0 -539 246q-154 205 -154 512zM305 729q0 -315 178 -475 q135 -121 314 -121q117 0 221 53q-41 33 -174 101q-59 27 -60 65q0 68 60 68q98 0 289 -154q161 168 161 469q0 315 -176 475q-135 123 -319 123q-166 0 -297 -104q-197 -158 -197 -500z" />
<glyph unicode="R" horiz-adv-x="1409" d="M176 139v1164q0 111 27 137q26 26 129 26h8h469q186 0 287 -59q188 -113 188 -340q0 -190 -133 -291q-96 -72 -258 -100q102 -59 156 -129l86 -117l133 -223q68 -113 67 -148q0 -39 -28 -63q-27 -23 -62 -23q-61 0 -143 133l-139 222q-139 221 -230 284q-68 45 -188 45 h-172v-518q0 -74 -8 -100q-18 -63 -93 -64q-70 0 -90 64q-6 18 -6 100zM373 815h342q368 0 368 253q0 120 -94 192q-70 55 -268 55h-348v-500z" />
<glyph unicode="S" horiz-adv-x="1300" d="M111 408q0 33 24 57q25 27 62 27q39 0 59 -29q14 -20 43 -101q88 -239 346 -239h2q147 0 250 70q115 78 115 204q0 193 -295 258q-334 74 -430 148q-137 111 -137 287q0 193 151 303q137 98 348 98q326 0 447 -209q47 -84 47 -152q0 -35 -23 -63q-27 -33 -65 -33 q-61 0 -97 99q-35 102 -100 149q-82 59 -215 59q-137 0 -223 -69q-82 -68 -82 -162q0 -113 108 -176q63 -37 218 -74q301 -72 403 -149q133 -100 133 -287q0 -193 -137 -318q-147 -133 -404 -133q-276 0 -417 144q-131 135 -131 291z" />
<glyph unicode="T" horiz-adv-x="1193" d="M25 1386q0 80 141 80h862q141 0 141 -80q0 -77 -137 -77h-4h-334v-1172q0 -88 -18 -121q-20 -41 -80 -41q-98 0 -98 162v1172h-332q-141 0 -141 77z" />
<glyph unicode="U" horiz-adv-x="1492" d="M166 563v764q0 106 27 133q31 31 71 31q45 0 72 -31q26 -26 26 -126v-7v-778q0 -166 50 -254q88 -162 338 -162q381 0 380 414v780q0 106 27 133q31 31 72 31q45 0 71 -31q27 -27 27 -133v-762q0 -590 -563 -590q-303 0 -447 131q-152 141 -151 457z" />
<glyph unicode="V" horiz-adv-x="1300" d="M39 1401q0 33 27 61q29 29 69 29q47 0 74 -33q14 -23 41 -94l399 -1155l412 1161q41 121 108 121q37 0 66 -27q27 -27 27 -57q0 -27 -27 -98l-430 -1162q-37 -98 -60 -127q-35 -45 -98 -45q-66 0 -98 43q-25 29 -62 129l-419 1151q-29 78 -29 103z" />
<glyph unicode="W" horiz-adv-x="1855" d="M37 1405q0 31 24 57q27 29 68 29q51 0 76 -39q16 -25 31 -96l262 -1075l280 1036q23 86 43 115q31 41 99 41q80 0 112 -37q20 -25 45 -119l281 -1036l262 1075q14 72 31 96q25 39 73 39q43 0 70 -29q25 -27 25 -57q0 6 -17 -92l-305 -1172q-25 -92 -43 -121 q-29 -45 -90 -45q-63 0 -92 43q-18 27 -45 119l-299 1102l-299 -1102q-27 -90 -45 -117q-31 -45 -92 -45t-91 45q-18 29 -43 121l-305 1172q-16 82 -16 92z" />
<glyph unicode="X" horiz-adv-x="1236" d="M43 61q0 37 53 113l420 592l-358 526q-51 78 -52 115q0 84 93 84q47 0 118 -109l308 -473l342 486q68 96 112 96q82 0 82 -76q0 -37 -51 -108l-371 -529l400 -598q51 -80 51 -117q0 -35 -27 -61q-27 -27 -69 -27q-47 0 -127 119l-342 524l-381 -546q-66 -96 -115 -97 q-86 0 -86 86z" />
<glyph unicode="Y" horiz-adv-x="1259" d="M49 1401q0 90 96 90q49 0 117 -109l367 -579l377 586q66 102 114 102q37 0 64 -25q26 -24 26 -58q0 -36 -51 -114l-438 -665v-492q0 -109 -29 -133q-29 -29 -69 -29q-39 0 -72 29q-27 25 -27 133v492l-422 655q-53 86 -53 117z" />
<glyph unicode="Z" horiz-adv-x="1280" d="M25 104q0 39 71 127l858 1078h-721q-131 0 -131 77q0 53 43 70q25 10 88 10h822q145 0 145 -104q0 -43 -55 -113l-871 -1091h824q74 0 98 -8q49 -16 49 -72q0 -78 -133 -78h-907q-109 0 -137 20q-43 33 -43 84z" />
<glyph unicode="[" horiz-adv-x="704" d="M158 -246v1549q0 104 28 135q29 29 127 28h244q119 0 119 -71q0 -47 -39 -62q-20 -6 -80 -6h-227v-1597h227q119 0 119 -68q0 -72 -119 -72h-244q-94 0 -127 29q-29 27 -28 135z" />
<glyph unicode="\" horiz-adv-x="575" d="M23 1434q0 57 61 57q45 0 61 -16q10 -14 25 -66l371 -1319q12 -45 12 -59q0 -57 -61 -58q-45 0 -62 19q-10 12 -24 65l-371 1319q-12 45 -12 58z" />
<glyph unicode="]" horiz-adv-x="704" d="M29 -338q0 47 39 62q20 6 79 6h228v1597h-228q-119 0 -118 68q0 72 118 71h244q94 0 127 -28q29 -27 29 -135v-1549q0 -104 -29 -135q-29 -29 -127 -29h-244q-119 0 -118 72z" />
<glyph unicode="^" horiz-adv-x="960" d="M53 690l355 801h145l354 -801h-182l-246 598l-241 -598h-185z" />
<glyph unicode="_" horiz-adv-x="1024" d="M-12 -276h1048v-132h-1048v132z" />
<glyph unicode="`" horiz-adv-x="681" d="M129 1454q0 16 61 16h50q72 0 90 -12q23 -12 57 -82l51 -100q20 -39 21 -53q0 -37 -45 -37q-51 0 -236 200q-49 53 -49 68z" />
<glyph unicode="a" d="M86 279q0 246 348 313l152 29q125 23 147 28q51 14 101 31q-4 139 -35 190q-51 84 -207 84q-240 0 -299 -147q-33 -86 -88 -86q-80 0 -80 76q0 86 84 168q122 120 367 120h4q276 0 368 -127q63 -88 64 -311l-6 -334q0 -100 28 -176q18 -93 21 -93v1q0 -27 -25 -47 q-27 -23 -61 -23q-72 0 -119 175q-180 -175 -420 -175q-166 0 -260 97q-84 84 -84 207zM268 291q0 -66 47 -115q55 -61 156 -61q231 0 320 153q45 76 45 285q-64 -25 -119 -37t-172 -35q-94 -18 -139 -30q-137 -37 -138 -160z" />
<glyph unicode="b" horiz-adv-x="1259" d="M150 117v1226q0 72 12 99q18 49 78 49q59 0 77 -47q10 -29 11 -103v-440q127 184 374 184q248 0 373 -188q96 -145 96 -356q0 -207 -92 -359q-125 -207 -381 -207q-223 0 -376 185v-64q0 -121 -86 -121q-37 0 -62 25q-24 19 -24 110v7zM326 520q0 -209 108 -315 q90 -90 230 -90q125 0 215 92q110 114 110 328q0 182 -86 294q-88 117 -233 117q-121 0 -213 -78q-131 -111 -131 -348z" />
<glyph unicode="c" d="M86 528q0 225 102 371q131 186 404 186q211 0 342 -116q102 -94 102 -185q0 -33 -24 -55q-25 -23 -56 -22q-43 0 -86 71q-98 168 -276 168q-150 0 -240 -110q-90 -111 -90 -299q0 -197 88 -310q85 -112 235 -112h3q186 0 272 151q70 127 113 127q31 0 55 -22 q27 -23 27 -60q-1 -84 -99 -190q-137 -145 -358 -146q-309 0 -438 228q-76 135 -76 325z" />
<glyph unicode="d" horiz-adv-x="1257" d="M86 541q0 211 96 356q125 188 373 188t375 -184v440q0 74 10 103q18 47 78 47q59 0 80 -49q10 -27 10 -99v-1226q0 -96 -25 -117q-25 -25 -61 -25q-86 0 -86 121v64q-154 -184 -377 -185q-256 0 -381 207q-92 152 -92 359zM268 539q0 -217 111 -332q90 -92 215 -92 q139 0 229 90q109 106 109 315q0 238 -131 348q-92 78 -213 78q-145 0 -234 -117q-86 -113 -86 -290z" />
<glyph unicode="e" d="M90 532q0 244 123 392q132 161 376 161h3q270 0 395 -202q80 -129 80 -273q0 -76 -51 -100q-31 -14 -107 -14h-637q4 -199 105 -301q88 -88 227 -89q117 0 193 60q45 35 106 131q35 53 76 53q68 0 68 -67q0 -74 -78 -164q-125 -143 -373 -144q-250 0 -383 162 q-123 147 -123 395zM274 618h611q-25 336 -299 336q-270 0 -312 -336z" />
<glyph unicode="f" horiz-adv-x="618" d="M4 997q0 63 102 64h93v100q0 207 100 283q61 47 190 47q197 0 197 -86q0 -68 -59 -68l-97 11q-96 0 -129 -56q-24 -39 -24 -139v-8v-84h110q109 0 109 -64q0 -67 -106 -67h-3h-110v-809q0 -76 -17 -109q-20 -37 -73 -37q-88 0 -88 146v809h-97q-98 0 -98 67z" />
<glyph unicode="g" horiz-adv-x="1259" d="M90 532q0 223 109 375q127 178 360 178q221 0 377 -192v82q0 110 84 110h2q57 0 76 -49q10 -29 10 -110v-811q0 -203 -39 -301q-100 -250 -481 -250q-240 0 -365 119q-88 82 -88 159q0 29 23 52q22 24 56 24h3q43 0 105 -96q76 -119 266 -119q231 0 299 127q41 76 43 320 q-166 -166 -363 -166q-281 0 -403 233q-74 143 -74 315zM272 530q0 -207 103 -315q86 -92 225 -92q131 0 221 88q109 106 109 311q0 203 -94 316q-87 108 -233 108h-3q-119 0 -205 -74q-123 -106 -123 -342z" />
<glyph unicode="h" horiz-adv-x="1173" d="M152 123v1220q0 72 10 101q18 47 76 47q61 0 79 -47q12 -27 13 -101v-434q141 176 334 176q180 0 292 -129q74 -86 74 -274v-559q0 -88 -22 -119q-18 -29 -70 -29q-47 0 -64 27q-22 32 -22 114v7v516q0 145 -33 201q-59 100 -188 100q-176 0 -252 -145q-49 -92 -49 -320 v-354q0 -78 -15 -107q-20 -39 -77 -39t-76 50q-10 29 -10 98z" />
<glyph unicode="i" horiz-adv-x="491" d="M147 1362q0 41 29 70q28 28 67 28h3q41 0 69 -28q29 -29 29 -70t-29 -72q-28 -28 -66 -28h-3q-41 0 -70 28q-29 31 -29 72zM156 121v819q0 80 20 113q19 32 69 32h3q59 0 78 -45q10 -27 10 -100v-819q-2 -145 -90 -146q-90 0 -90 146z" />
<glyph unicode="j" horiz-adv-x="491" d="M-102 -336q0 72 79 72l74 -6q59 0 82 43q25 45 25 166v1001q0 78 14 109q18 36 71 36h3q59 0 80 -47q10 -29 10 -98v-997q0 -195 -37 -258q-68 -117 -233 -117q-168 0 -168 96zM147 1362q0 41 29 70q30 28 69 28h3q41 0 69 -28q29 -29 29 -70t-29 -72q-28 -28 -66 -28h-3 q-41 0 -72 28q-29 31 -29 72z" />
<glyph unicode="k" horiz-adv-x="1087" d="M166 131v1188q0 172 90 172q53 0 72 -35q16 -33 16 -121v-725l426 410q72 70 102 70q35 0 60 -25t24 -55q0 -31 -57 -84l-276 -260l342 -494q55 -80 55 -115t-31 -59q-27 -23 -59 -23q-45 0 -103 86l-327 490l-156 -143v-283q0 -74 -12 -102q-18 -47 -80 -48 q-57 0 -76 45q-10 29 -10 111z" />
<glyph unicode="l" horiz-adv-x="491" d="M158 121v1222q0 84 18 115q18 33 70 33q90 0 90 -148v-1222q0 -145 -90 -146q-59 0 -78 48q-10 29 -10 98z" />
<glyph unicode="m" horiz-adv-x="1705" d="M135 123v817q0 70 10 98q16 47 70 47q53 0 68 -34q12 -29 12 -138q113 172 321 172q233 0 302 -186q121 186 327 186q215 0 289 -149q39 -80 39 -207v-606q0 -82 -19 -113q-18 -35 -69 -35q-59 0 -78 50q-12 29 -12 100v545q0 113 -25 166q-41 94 -166 94 q-147 0 -213 -111q-47 -80 -47 -203v-493q0 -82 -16 -113q-18 -35 -72 -35q-49 0 -70 31q-20 33 -20 117v567q0 240 -188 240q-264 0 -265 -379v-428q0 -82 -16 -113q-18 -35 -72 -35q-49 0 -69 31q-20 33 -21 117z" />
<glyph unicode="n" horiz-adv-x="1173" d="M152 121v823q0 94 22 117q28 24 61 24h3q53 0 69 -38q18 -33 19 -144q141 182 336 182q184 0 299 -131q69 -79 69 -271v-5v-557q0 -98 -24 -121q-29 -25 -64 -25q-37 0 -65 25q-25 23 -25 121v506q0 143 -33 200q-59 102 -186 103q-174 0 -254 -148q-49 -88 -49 -323 v-338q0 -96 -27 -121q-29 -25 -63 -25q-35 0 -64 25q-24 22 -24 114v7z" />
<glyph unicode="o" horiz-adv-x="1173" d="M86 510q0 276 133 426q130 149 364 149h3q217 0 350 -131q150 -147 149 -424q1 -277 -149 -424q-133 -131 -350 -131q-240 0 -375 160q-125 145 -125 375zM268 530q0 -193 84 -303q85 -112 233 -112h3q150 0 233 112q82 113 82 303q0 197 -86 308q-83 108 -226 108h-3 q-150 0 -236 -115q-84 -111 -84 -301z" />
<glyph unicode="p" horiz-adv-x="1259" d="M150 -283v1227q0 96 24 117q24 24 59 24h3q86 0 86 -120v-64q154 184 376 184q256 0 381 -204q92 -154 92 -361q0 -211 -96 -356q-125 -188 -373 -189q-248 0 -374 185v-441q0 -74 -11 -102q-18 -47 -77 -47t-78 49q-12 29 -12 98zM326 541q0 -238 131 -348 q92 -78 213 -78q145 0 233 116q86 113 86 291q0 217 -110 332q-90 92 -215 92q-140 0 -230 -88q-109 -109 -108 -317z" />
<glyph unicode="q" horiz-adv-x="1259" d="M86 520q0 207 92 361q124 204 379 204h2q223 0 377 -184v64q0 120 85 120h1q37 0 61 -24q25 -20 25 -117v-1227q0 -70 -10 -98q-20 -49 -80 -49q-59 0 -78 47q-10 29 -10 102v441q-127 -184 -375 -185q-248 0 -373 189q-96 145 -96 356zM268 522q0 -178 86 -291 q87 -116 232 -116h2q121 0 213 78q131 111 131 348q0 209 -109 317q-90 88 -229 88q-125 0 -215 -92q-111 -115 -111 -332z" />
<glyph unicode="r" horiz-adv-x="768" d="M158 121v852q0 112 77 112h1q76 0 75 -112v-82q68 104 107 139q63 55 151 55q74 0 140 -32q71 -35 71 -87q0 -36 -26 -61q-23 -23 -45 -22q-18 0 -62 16q-43 14 -86 14q-131 0 -184 -133q-41 -104 -41 -317v-385q0 -102 -88 -103q-39 0 -64 25q-26 22 -26 114v7z" />
<glyph unicode="s" horiz-adv-x="1044" d="M84 268q0 29 22 51q23 23 56 23q51 0 82 -70q74 -170 278 -170q117 0 187 54q61 47 61 116q0 86 -82 136q-47 27 -162 55q-256 66 -333 129q-92 78 -93 190q0 127 99 211q109 92 299 92q223 0 331 -112q72 -74 72 -144q0 -73 -74 -73h-2q-31 0 -104 102q-74 100 -219 100 q-102 0 -164 -38q-68 -41 -68 -111q0 -66 62 -104q68 -43 243 -82q168 -37 252 -88q129 -80 129 -226q1 -116 -73 -200q-113 -133 -373 -134q-223 0 -336 113q-90 90 -90 180z" />
<glyph unicode="t" horiz-adv-x="618" d="M37 997q0 63 96 64h51v180q0 100 15 127q23 41 73 41q59 0 80 -51q10 -29 10 -107v-190h95q111 0 110 -64q0 -65 -101 -65h-3h-101v-631q0 -94 17 -129q20 -51 90 -51q8 0 53 6l51 6q61 0 62 -63q0 -88 -201 -88q-164 0 -219 104q-31 59 -31 201v645h-67q-80 0 -80 65z " />
<glyph unicode="u" horiz-adv-x="1173" d="M141 373v565q0 147 90 147q88 0 88 -147v-496q0 -147 35 -204q66 -106 189 -107q174 0 254 148q47 90 47 327v332q0 80 16 111q18 36 69 36h3q53 0 72 -34q18 -31 18 -113v-821q0 -74 -14 -105q-20 -37 -72 -37q-53 0 -70 33q-16 35 -16 152q-145 -184 -344 -185 q-233 0 -313 156q-51 100 -52 242z" />
<glyph unicode="v" horiz-adv-x="1067" d="M57 1008q0 29 23 51q26 26 62 26h3q55 0 99 -110l291 -772l288 772q25 66 37 82q19 28 59 28h3q39 0 65 -26q23 -25 23 -51q0 -31 -27 -95l-324 -807q-53 -131 -124 -131q-74 0 -127 131l-324 807q-27 70 -27 95z" />
<glyph unicode="w" horiz-adv-x="1536" d="M31 1008q0 29 22 53q24 24 57 24h3q61 0 98 -112l235 -764l207 741q20 74 37 99q26 36 75 36h3q51 0 78 -36q16 -25 37 -99l207 -741l235 764q20 63 35 84q19 28 60 28h3q33 0 58 -24q24 -22 24 -51q0 -27 -20 -88l-273 -805q-29 -82 -43 -105q-29 -37 -82 -37 q-55 0 -86 43q-16 27 -38 105l-195 698l-195 -698q-23 -78 -38 -105q-29 -43 -86 -43q-53 0 -80 37q-16 23 -45 105l-273 805q-20 70 -20 86z" />
<glyph unicode="x" horiz-adv-x="1044" d="M59 51q0 31 37 80l318 424l-281 365q-43 57 -43 90q0 75 82 75h2q43 0 100 -75l248 -328l244 328q54 75 103 75h1q35 0 62 -22q23 -23 22 -49q0 -35 -47 -94l-276 -357l309 -422q45 -59 45 -90t-24 -53q-27 -23 -58 -23q-51 0 -106 76l-275 381l-278 -385 q-51 -72 -101 -72q-37 0 -61 25q-23 23 -23 51z" />
<glyph unicode="y" horiz-adv-x="1044" d="M45 1004q0 31 25 55q26 26 60 26h3q59 0 98 -104l291 -793l301 783q29 74 43 92q17 22 53 22h3q37 0 59 -26q20 -23 20 -47q0 -23 -24 -88l-426 -1092q-57 -145 -121 -201q-68 -61 -190 -61q-172 0 -172 92q0 72 69 72l90 -6q94 0 148 131l55 141l-362 920q-23 53 -23 84 z" />
<glyph unicode="z" horiz-adv-x="1044" d="M25 78q0 41 51 98l526 588q94 104 121 158h-490q-92 0 -122 8q-51 14 -52 61q0 70 117 70h621q82 0 112 -10q51 -16 52 -72q0 -33 -68 -111l-623 -729h629q61 0 80 -6q41 -12 41 -59q0 -74 -121 -74h-731q-66 0 -86 6q-57 14 -57 72z" />
<glyph unicode="{" horiz-adv-x="681" d="M57 530q0 76 52 91q106 31 133 127q20 70 22 327q2 201 41 283q63 133 256 133q76 0 76 -70q0 -53 -21 -71q-16 -16 -63 -17q-76 0 -102 -65q-18 -43 -19 -140q0 -309 -24 -399q-37 -129 -185 -199q135 -55 176 -176q33 -94 33 -334v-88q0 -125 33 -165q29 -37 113 -39 q59 -4 59 -72q0 -51 -19 -70q-18 -16 -69 -16q-184 0 -246 141q-37 80 -39 258q-4 274 -22 346q-27 98 -133 125q-51 12 -52 90z" />
<glyph unicode="|" horiz-adv-x="532" d="M188 -330v1721q0 53 9 71q14 29 61 29q59 0 76 -25q12 -18 12 -75v-1721q0 -53 -10 -71q-14 -29 -62 -29q-59 0 -75 24q-10 16 -11 76z" />
<glyph unicode="}" horiz-adv-x="681" d="M47 -360q0 53 21 71q16 16 63 17q76 0 102 65q18 43 19 139q0 309 24 400q37 129 185 198q-135 56 -176 177q-33 94 -33 331v90q0 123 -33 164q-29 37 -113 41q-59 0 -59 72q0 51 19 70q18 16 69 16q184 0 248 -141q35 -80 37 -258q4 -274 22 -347q27 -98 133 -124 q51 -12 52 -91q0 -76 -52 -90q-106 -31 -133 -127q-20 -70 -22 -327q-2 -201 -41 -283q-63 -133 -256 -133q-76 0 -76 70z" />
<glyph unicode="~" horiz-adv-x="1193" d="M86 557v205q104 121 279 121q104 0 272 -70q154 -66 213 -65q135 0 258 137v-211q-123 -115 -277 -115q-104 0 -243 62q-158 72 -242 71q-121 0 -260 -135z" />
<glyph unicode="&#xa2;" d="M86 526q0 225 100 367q137 193 414 192q53 0 98 -8l88 285q29 90 68 90q47 0 47 -43q0 -8 -16 -74l-86 -282q123 -55 190 -154q47 -70 47 -117q0 -29 -22 -51q-25 -25 -58 -24q-45 0 -86 71q-49 86 -116 127l-238 -784q35 -6 80 -6q168 0 268 155l47 82q27 41 64 41 q35 0 59 -26q23 -23 23 -52q0 -94 -119 -213q-127 -127 -356 -127q-61 0 -107 11l-84 -273q-31 -94 -65 -94q-47 0 -47 51q0 25 16 78l80 264q-289 125 -289 514zM264 530q0 -264 158 -368l233 778q-20 6 -57 6q-135 0 -225 -88q-109 -111 -109 -328z" />
<glyph unicode="&#xa3;" d="M23 731q0 68 102 68h84q-55 190 -55 270q0 180 122 299q125 123 330 123q209 0 340 -129q106 -106 107 -227q0 -37 -27 -62t-61 -24q-68 0 -91 84q-70 219 -264 219q-121 0 -196 -78q-76 -76 -76 -195q0 -86 59 -280h240q119 0 119 -68t-115 -67h-213q8 -51 8 -134 q0 -178 -98 -348q86 14 160 15q80 0 241 -37q72 -16 123 -17q37 0 137 37q37 12 54 13q76 0 75 -80q0 -63 -94 -103q-82 -35 -184 -35q-90 0 -242 45q-154 45 -229 46q-72 0 -152 -37q-90 -41 -114 -41q-27 0 -52 22q-31 27 -30 68q0 33 75 104q160 160 160 334 q0 70 -20 148h-113q-111 0 -110 67z" />
<glyph unicode="&#xa5;" horiz-adv-x="1130" d="M37 1423q0 68 84 68q63 0 115 -90l251 -451q49 -86 76 -153q10 25 84 161l236 441q51 92 123 92q88 0 88 -64q0 -27 -33 -86l-334 -585h242q53 0 71 -8q29 -14 29 -62q0 -53 -25 -68q-14 -6 -75 -6h-314v-143h314q100 0 100 -72q0 -49 -29 -63q-16 -8 -71 -8h-314v-201 q0 -100 -20 -121q-29 -29 -68 -29t-65 27q-25 25 -25 123v201h-313q-51 0 -70 8q-31 14 -31 57q0 49 29 66q20 12 72 12h313v143h-313q-57 0 -72 6q-29 10 -29 58q0 55 27 69q16 10 74 11h239l-335 585q-31 53 -31 82z" />
<glyph unicode="&#xa7;" d="M86 639q0 184 229 287q-139 100 -139 250q0 119 86 206q106 109 307 109q190 0 310 -115q94 -92 94 -186q0 -33 -27 -55q-25 -25 -57 -25q-53 0 -90 80q-70 156 -232 156q-111 0 -170 -62q-45 -47 -45 -104q0 -66 54 -117q37 -35 155 -107q270 -164 373 -237 q133 -94 133 -250q0 -195 -231 -297q161 -114 161 -270q0 -150 -120 -244q-115 -90 -285 -90q-236 0 -356 149q-82 98 -82 189q0 31 22 55q27 29 66 29q61 0 94 -88q35 -90 74 -129q61 -59 178 -60q125 0 190 68q47 51 47 110q0 68 -57 123q-41 37 -184 129 q-334 211 -385 258q-113 106 -113 238zM242 655q0 -76 86 -145q66 -55 352 -229q213 37 213 155q0 76 -90 158q-59 51 -381 250q-180 -74 -180 -189z" />
<glyph unicode="&#xa9;" horiz-adv-x="1515" d="M2 737q0 313 223 535q221 219 533 219q313 0 534 -219q221 -221 221 -535q0 -311 -221 -534q-221 -221 -534 -221t-535 221q-221 221 -221 534zM129 737q0 -260 184 -444t445 -184q262 0 444 184q184 184 184 444q0 262 -184 445q-184 182 -444 182q-261 0 -443 -182 q-186 -182 -186 -445zM362 735q0 197 107 309q109 115 297 115q272 0 342 -235l-119 -29q-25 59 -63 94q-68 59 -164 60q-133 0 -203 -103q-59 -86 -59 -215q0 -152 73 -233q68 -76 179 -76q201 0 247 192l123 -36q-33 -135 -137 -207q-96 -68 -225 -68q-176 0 -285 115 q-113 117 -113 317z" />
<glyph unicode="&#xaa;" horiz-adv-x="747" d="M47 1001q0 111 107 162q63 31 223 54q94 12 149 36q-4 68 -22 93q-29 41 -119 40q-137 0 -174 -67q-37 -70 -76 -70q-61 0 -61 56q0 59 55 110q82 76 246 76q184 0 246 -82q41 -53 41 -192v-199q0 -47 16 -96q14 -43 14 -60q0 -55 -67 -55q-55 0 -82 96 q-117 -94 -262 -94q-113 0 -177 59q-57 53 -57 133zM188 1008q0 -35 29 -60q33 -31 90 -30q104 0 168 55q51 43 51 172q-67 -21 -149 -33q-106 -16 -144 -35q-45 -23 -45 -69z" />
<glyph unicode="&#xac;" horiz-adv-x="1193" d="M113 862v168h970v-606h-168v438h-802z" />
<glyph unicode="&#xad;" horiz-adv-x="681" d="M43 512q0 84 141 84h314q141 0 141 -84t-141 -84h-314q-141 0 -141 84z" />
<glyph unicode="&#xae;" horiz-adv-x="1515" d="M2 737q0 313 223 535q221 219 533 219q313 0 534 -219q221 -221 221 -535q0 -311 -221 -534q-221 -221 -534 -221t-535 221q-221 221 -221 534zM129 737q0 -260 184 -444t445 -184q262 0 444 184q184 184 184 444q0 262 -184 445q-184 182 -444 182q-261 0 -443 -182 q-186 -182 -186 -445zM426 319v811h281q201 0 268 -57q78 -63 78 -162q0 -80 -54 -143q-63 -78 -178 -86q82 -31 189 -205l98 -158h-160l-71 127q-76 135 -119 175q-45 43 -123 43h-78v-345h-131zM557 776h160q197 0 196 123q0 121 -206 121h-150v-244z" />
<glyph unicode="&#xb0;" horiz-adv-x="811" d="M129 1214q0 115 80 197q82 80 197 80t196 -82q80 -80 80 -195q0 -117 -82 -196q-80 -82 -194 -82q-115 0 -195 82q-82 80 -82 196zM238 1214q0 -69 49 -120q49 -49 119 -50q70 0 118 50q49 51 49 120q0 70 -49 119t-118 49q-70 0 -119 -49t-49 -119z" />
<glyph unicode="&#xb1;" horiz-adv-x="1193" d="M113 0v168h970v-168h-970zM113 662v167h401v402h168v-402h401v-167h-401v-402h-168v402h-401z" />
<glyph unicode="&#xb5;" horiz-adv-x="1130" d="M135 -246v1184q0 82 15 109q25 39 75 38q35 0 64 -24q25 -25 24 -123v-395q0 -244 76 -330q68 -74 170 -74q141 0 213 119q43 72 43 352v328q0 96 27 121q27 27 63 26q55 0 74 -38q14 -23 14 -107v-823q0 -68 -10 -94q-18 -47 -76 -48q-57 0 -76 50q-10 29 -10 100 q-84 -150 -254 -150q-164 0 -260 148v-449q0 -104 -86 -104q-33 0 -61 24q-25 25 -25 160z" />
<glyph unicode="&#xb6;" horiz-adv-x="1110" d="M2 1044q0 279 221 375q109 47 252 47h633v-172h-143v-1702h-172v1702h-215v-1702h-172v1045q-197 12 -306 133q-98 111 -98 274z" />
<glyph unicode="&#xb7;" horiz-adv-x="491" d="M133 721q0 47 33 80t80 33t80 -33t32 -80q1 -47 -32 -80t-80 -33t-80 33t-33 80z" />
<glyph unicode="&#xba;" horiz-adv-x="747" d="M41 1139q0 164 88 258t244 94q143 0 231 -80q100 -90 101 -262q-1 -170 -99 -260q-90 -80 -233 -80q-158 0 -248 96q-84 90 -84 234zM180 1149q0 -229 195 -229q190 0 190 229q0 107 -49 168q-51 63 -141 63q-92 0 -144 -63q-51 -61 -51 -168z" />
<glyph unicode="&#xf7;" horiz-adv-x="1193" d="M113 639v168h970v-168h-970zM494 319v205h206v-205h-206zM494 922v204h206v-204h-206z" />
<glyph unicode="&#x192;" horiz-adv-x="1130" d="M57 -383q0 96 68 96q8 0 39 -6q29 -6 59 -6q74 0 103 43q20 29 34 111l129 753h-88q-100 0 -100 62q0 53 31 67q18 10 74 11h106l74 421q23 133 61 193q68 104 217 104q117 0 174 -28q35 -14 35 -52q0 -61 -26 -81q-18 -18 -43 -19q-12 0 -19 2q-61 10 -82 10 q-70 0 -96 -34q-25 -31 -43 -125l-70 -391h92q100 0 101 -62q0 -51 -31 -68q-20 -10 -74 -10h-112l-142 -805q-23 -133 -77 -194q-61 -66 -181 -66q-121 0 -176 19q-37 14 -37 55z" />
<glyph unicode="&#x3a9;" horiz-adv-x="1572" d="M92 84q0 80 105 80h249q-313 258 -313 629q0 299 178 495q182 203 475 203t476 -203q178 -197 178 -495q0 -371 -314 -629h248q106 0 107 -84q0 -80 -107 -80h-489v162q352 197 352 610q0 240 -127 399q-127 162 -324 162q-199 0 -325 -159q-125 -160 -125 -402 q0 -418 352 -610v-162h-491q-104 0 -105 84z" />
<glyph unicode="&#x3c0;" horiz-adv-x="1421" d="M25 993q0 70 88 70h1196q90 0 90 -72q0 -68 -90 -67h-197v-838q0 -111 -90 -111q-86 0 -86 111v838h-449v-838q0 -111 -90 -111q-88 0 -88 111v838h-196q-88 0 -88 69z" />
<glyph unicode="&#x401;" horiz-adv-x="1300" d="M178 164v1139q0 109 27 135q27 29 137 28h715q135 0 135 -77q0 -43 -25 -60q-31 -20 -110 -20h-682v-471h626q131 0 132 -78q0 -80 -132 -80h-626v-522h710q82 0 111 -21q25 -16 25 -57q0 -43 -25 -60q-31 -20 -111 -20h-743q-123 8 -139 27q-14 14 -25 137zM385 1692 q0 39 27 67q29 29 69 29q41 0 70 -29q27 -29 27 -67q0 -39 -27 -68q-29 -29 -70 -29t-69 29q-27 29 -27 68zM723 1692q0 39 27 67q29 29 69 29q41 0 70 -29q27 -29 26 -67q0 -39 -26 -68q-29 -29 -70 -29t-69 29q-27 29 -27 68z" />
<glyph unicode="&#x410;" horiz-adv-x="1409" d="M39 61q0 29 29 103l464 1153q41 104 70 137q31 37 92 37q59 0 86 -27q31 -31 78 -145l481 -1147q31 -76 31 -106q0 -33 -29 -62t-69 -29q-43 0 -64 25q-18 20 -51 100l-131 324h-653l-127 -328q-29 -74 -49 -96q-20 -25 -64 -25q-37 0 -65 27q-29 27 -29 59zM428 582h539 l-275 686z" />
<glyph unicode="&#x411;" horiz-adv-x="1392" d="M166 164v1141q0 137 57 153q25 8 262 8h525l57 -12q39 -20 39 -70q0 -82 -133 -81h-611v-463h402q246 0 389 -119q139 -115 139 -303t-123 -297q-135 -121 -385 -121h-454q-111 0 -137 27q-27 27 -27 137zM362 164h408q160 0 246 74q78 68 78 184q0 115 -82 184 q-86 72 -242 72h-408v-514z" />
<glyph unicode="&#x412;" horiz-adv-x="1409" d="M172 164v1139q0 115 27 141q25 23 137 22h422q471 0 471 -370q0 -219 -213 -322q283 -92 282 -360q0 -182 -120 -293q-133 -121 -385 -121h-457q-109 0 -131 18q-33 27 -33 146zM369 158h409q319 0 320 264q0 123 -86 190q-86 68 -234 68h-409v-522zM369 838h374 q145 0 224 69q70 61 69 168q0 119 -73 172q-84 61 -277 62h-317v-471z" />
<glyph unicode="&#x413;" horiz-adv-x="1150" d="M166 137v1168q0 113 27 137q27 25 137 24h643q133 0 133 -82t-133 -81h-613v-1166q0 -94 -22 -129q-23 -33 -74 -33q-53 0 -74 33q-25 35 -24 129z" />
<glyph unicode="&#x414;" horiz-adv-x="1386" d="M0 74q0 90 92 90h23q68 125 100 239q76 268 76 848v115q0 100 100 100h692q100 0 101 -100v-1202h33q98 0 98 -90v-336q0 -104 -82 -105q-82 0 -82 105v262h-987v-262q0 -104 -84 -105q-80 0 -80 105v336zM313 164h676v1139h-512q0 -752 -164 -1139z" />
<glyph unicode="&#x415;" horiz-adv-x="1300" d="M178 164v1139q0 109 27 135q27 29 137 28h715q135 0 135 -77q0 -43 -25 -60q-31 -20 -110 -20h-682v-471h626q131 0 132 -78q0 -80 -132 -80h-626v-522h710q82 0 111 -21q25 -16 25 -57q0 -43 -25 -60q-31 -20 -111 -20h-743q-123 8 -139 27q-14 14 -25 137z" />
<glyph unicode="&#x416;" horiz-adv-x="1921" d="M-23 1382q0 84 154 84q170 0 254 -82q61 -61 143 -260q84 -203 136 -250q53 -49 196 -51v547q0 121 103 121q96 0 96 -121v-547q143 0 196 49q49 47 136 252q84 203 147 265q82 78 250 77q156 0 156 -84q0 -80 -95 -79h-53q-88 0 -131 -48q-43 -45 -100 -192 q-61 -156 -111 -217q-45 -57 -137 -96q104 -33 166 -113q84 -115 121 -172l165 -256q70 -106 70 -148q0 -37 -27 -61q-27 -25 -63 -25q-76 0 -172 156l-166 266q-102 172 -164 226q-74 63 -188 63v-590q0 -121 -101 -121q-98 0 -98 121v590q-117 0 -186 -63 q-55 -49 -166 -226l-166 -266q-98 -156 -172 -156q-37 0 -64 25t-26 59q0 43 70 150l167 256q96 145 123 178q59 72 162 107q-94 41 -137 96t-109 221q-61 156 -114 201q-39 35 -119 35h-53q-92 0 -93 79z" />
<glyph unicode="&#x417;" horiz-adv-x="1277" d="M104 408q0 82 95 81q53 0 92 -86q123 -270 364 -270q141 0 230 86q82 82 82 199q0 121 -93 190q-92 70 -247 70l-64 -2q-96 -4 -96 84q0 82 90 82l68 -2q121 0 200 71q78 70 78 176q0 111 -76 179t-198 67q-244 0 -312 -246q-31 -109 -98 -108q-90 0 -90 82 q0 174 156 303q152 127 350 127q201 0 336 -113q135 -115 135 -286q0 -209 -217 -322q278 -73 278 -356q0 -182 -137 -305q-145 -133 -389 -134q-272 0 -405 170q-131 168 -132 263z" />
<glyph unicode="&#x418;" horiz-adv-x="1492" d="M168 174v1159q0 92 22 127q20 31 70 31q51 0 70 -29q23 -35 16 -129v-1042l729 1085q53 80 76 99q20 16 61 16q72 0 95 -51q18 -39 18 -140v-1167q0 -92 -22 -127q-20 -31 -70 -31q-53 0 -74 31q-25 33 -22 127l8 1028l-715 -1067q-80 -119 -143 -119q-78 0 -103 54 q-16 37 -16 145z" />
<glyph unicode="&#x419;" horiz-adv-x="1492" d="M168 174v1159q0 92 22 127q20 31 70 31q51 0 72 -29q23 -35 22 -129l-8 -1042l729 1085q53 80 76 99q20 16 61 16q72 0 95 -51q18 -39 18 -140v-1167q0 -92 -22 -127q-20 -31 -70 -31q-53 0 -74 31q-25 33 -22 127l8 1028l-715 -1067q-80 -119 -143 -119q-78 0 -103 54 q-16 37 -16 145zM453 1778q-1 59 67 59q39 0 55 -47q37 -119 173 -119q133 0 172 119q16 47 53 47q68 0 67 -61q0 -82 -82 -152q-88 -78 -210 -78q-123 0 -213 78q-82 72 -82 154z" />
<glyph unicode="&#x41a;" horiz-adv-x="1224" d="M166 96v1274q0 121 100 121q98 0 99 -121v-547q143 0 196 51q49 45 135 250q88 205 148 262q80 80 250 80q154 0 153 -84q0 -80 -92 -79h-53q-88 0 -131 -48q-41 -43 -103 -192q-94 -248 -245 -313q96 -31 165 -113q63 -88 119 -172l168 -256q70 -106 70 -148 q0 -37 -27 -61q-25 -25 -61 -25q-78 0 -174 156l-164 266q-106 172 -168 226q-72 61 -186 63v-590q0 -121 -101 -121q-98 0 -98 121z" />
<glyph unicode="&#x41b;" horiz-adv-x="1419" d="M-55 74q0 72 78 71l45 -6q41 -6 51 -6q63 0 90 53q31 63 31 230v950q0 100 98 100h815q100 0 100 -100v-1274q0 -117 -98 -117q-96 0 -96 117v1211h-627v-764q0 -397 -86 -482q-84 -82 -207 -82q-195 0 -194 99z" />
<glyph unicode="&#x41c;" horiz-adv-x="1712" d="M156 119v1184q0 164 147 163q98 0 125 -16q31 -18 61 -111l306 -911q41 -121 71 -217q18 59 78 235l303 887q33 96 56 115q23 18 114 18q94 0 119 -34q20 -27 20 -129v-1203q0 -125 -94 -125t-94 117v1135l-381 -1096q-33 -96 -51 -123q-25 -33 -76 -33q-55 0 -80 27 t-59 129l-377 1116v-1126q0 -145 -94 -146q-94 0 -94 144z" />
<glyph unicode="&#x41d;" horiz-adv-x="1492" d="M166 137v1192q0 94 22 131q20 31 74 31q100 0 100 -162v-481h768v483q0 160 101 160q61 0 82 -43q14 -33 14 -117v-1196q0 -160 -96 -160q-100 0 -101 160v555h-768v-553q0 -90 -22 -127q-23 -35 -78 -35t-76 33q-20 33 -20 129z" />
<glyph unicode="&#x41e;" horiz-adv-x="1599" d="M104 733q0 338 181 543q188 215 518 215q324 0 512 -215q180 -209 180 -543q0 -336 -180 -543q-186 -215 -508 -215q-336 0 -524 218q-178 205 -179 540zM305 709q0 -252 141 -414q139 -162 353 -162q213 0 350 154q145 164 145 446q0 283 -149 449q-137 152 -346 151 q-209 0 -344 -151q-150 -168 -150 -473z" />
<glyph unicode="&#x41f;" horiz-adv-x="1492" d="M166 92v1274q0 100 98 100h965q98 0 98 -100v-1274q0 -117 -98 -117q-94 0 -94 117v1211h-775v-1211q0 -117 -98 -117q-96 0 -96 117z" />
<glyph unicode="&#x420;" horiz-adv-x="1300" d="M178 137v1166q0 115 31 141q27 23 149 22h351q500 0 499 -426q0 -201 -127 -317q-131 -121 -372 -121h-334v-465q0 -162 -99 -162q-55 0 -75 33q-23 35 -23 129zM375 760h282q350 0 351 276q0 272 -351 273h-282v-549z" />
<glyph unicode="&#x421;" horiz-adv-x="1492" d="M113 733q0 338 192 549q193 209 492 209q344 0 508 -258q70 -115 69 -162q0 -86 -80 -86q-57 0 -116 109q-131 240 -373 239q-217 0 -350 -155q-141 -164 -142 -453q0 -283 133 -440q127 -152 342 -152q313 0 426 322q31 84 89 84q32 0 57 -23q27 -25 26 -59 q0 -166 -163 -318q-178 -164 -416 -164q-344 0 -528 228q-166 203 -166 530z" />
<glyph unicode="&#x422;" horiz-adv-x="1193" d="M25 1386q0 80 141 80h862q141 0 141 -80q0 -78 -141 -77h-334v-1172q0 -94 -24 -129q-20 -33 -74 -33q-59 0 -80 41q-18 35 -18 121v1172h-332q-141 0 -141 77z" />
<glyph unicode="&#x423;" horiz-adv-x="1271" d="M41 1403q0 88 92 88q61 0 111 -90l426 -807l362 797q47 102 109 102q37 0 63 -27q27 -27 27 -59q0 -29 -43 -119l-518 -1069q-59 -123 -119 -174q-80 -70 -209 -70q-223 0 -223 107q0 72 65 72q23 0 78 -11q57 -10 78 -10q117 0 170 115l65 141l-489 899q-45 82 -45 115z " />
<glyph unicode="&#x424;" horiz-adv-x="1599" d="M104 739q0 240 175 394q166 147 423 157v90q0 111 99 111q96 0 96 -111v-90q272 -14 438 -170q160 -152 160 -381q0 -225 -156 -377q-164 -156 -442 -174v-102q0 -111 -98 -111q-96 0 -97 111v102q-260 10 -426 158q-172 154 -172 393zM305 739q0 -176 109 -278 q106 -100 288 -109v776q-182 -8 -286 -108q-111 -104 -111 -281zM897 356q184 8 291 109q106 102 106 274q0 174 -104 275q-104 102 -293 114v-772z" />
<glyph unicode="&#x425;" horiz-adv-x="1236" d="M41 61q0 39 53 113l420 592l-358 526q-51 76 -52 115q0 84 93 84q47 0 118 -109l308 -473l342 486q68 96 112 96q82 0 82 -76q0 -37 -51 -108l-371 -529l400 -598q51 -78 51 -117q0 -37 -27 -61q-27 -27 -69 -27q-49 0 -127 119l-342 524l-381 -546q-68 -96 -115 -97 q-86 0 -86 86z" />
<glyph unicode="&#x426;" horiz-adv-x="1533" d="M166 98v1274q0 119 98 119q96 0 96 -119v-1208h775v1208q0 119 98 119q94 0 94 -119v-1208h37q98 0 98 -101v-391q0 -104 -82 -104q-80 0 -80 104v328h-1036q-98 0 -98 98z" />
<glyph unicode="&#x427;" horiz-adv-x="1411" d="M129 1034v338q0 119 98 119q96 0 97 -119v-319q0 -227 69 -314q72 -88 256 -88q201 0 404 99v622q0 119 98 119q94 0 94 -119v-1280q0 -117 -96 -117t-96 117v500q-260 -98 -457 -98q-152 0 -270 71q-117 70 -160 183q-37 98 -37 286z" />
<glyph unicode="&#x428;" horiz-adv-x="1886" d="M166 98v1274q0 119 98 119q96 0 96 -119v-1208h488v1208q0 119 96 119t96 -119v-1208h488v1208q0 119 98 119q96 0 96 -119v-1274q0 -98 -100 -98h-1358q-98 0 -98 98z" />
<glyph unicode="&#x429;" horiz-adv-x="1925" d="M166 98v1274q0 119 98 119q96 0 96 -119v-1208h488v1208q0 119 96 119t96 -119v-1208h488v1208q0 119 98 119q96 0 96 -119v-1208h33q100 0 100 -101v-389q0 -106 -83 -106q-80 0 -80 106v326h-1428q-98 0 -98 98z" />
<glyph unicode="&#x42a;" horiz-adv-x="1669" d="M0 1384q0 82 104 82h461q100 0 101 -100v-526h350q561 0 561 -416q0 -424 -549 -424h-459q-98 0 -98 98v1205h-367q-104 0 -104 81zM666 166h354q354 0 354 256q0 139 -84 196q-88 59 -317 60h-307v-512z" />
<glyph unicode="&#x42b;" horiz-adv-x="1806" d="M166 98v1274q0 119 98 119q96 0 96 -119v-532h351q342 0 450 -127q111 -129 111 -287q0 -426 -547 -426h-461q-98 0 -98 98zM360 164h355q209 0 293 80q61 59 61 180q0 162 -137 223q-70 31 -289 31h-283v-514zM1448 92v1280q0 119 98 119q94 0 94 -119v-1280 q0 -117 -98 -117q-94 0 -94 117z" />
<glyph unicode="&#x42c;" horiz-adv-x="1363" d="M166 98v1274q0 119 98 119q96 0 96 -119v-532h351q342 0 450 -127q111 -129 111 -287q0 -426 -547 -426h-461q-98 0 -98 98zM360 164h355q209 0 293 80q61 59 61 180q0 162 -137 223q-70 31 -289 31h-283v-514z" />
<glyph unicode="&#x42d;" horiz-adv-x="1492" d="M106 461q0 31 27 55q25 23 57 23q57 0 89 -84q113 -322 426 -322q201 0 323 133q135 141 150 410h-459q-106 0 -107 82q0 80 107 80h452q-25 236 -161 368q-129 127 -322 127q-242 0 -364 -225q-68 -123 -125 -123q-35 0 -58 27q-23 25 -22 57q0 106 153 262 q154 160 424 160q301 0 494 -211q190 -211 190 -547q0 -328 -168 -532q-186 -225 -520 -226q-283 0 -454 197q-131 150 -132 289z" />
<glyph unicode="&#x42e;" horiz-adv-x="2070" d="M166 92v1280q0 119 98 119q96 0 96 -119v-569h283q20 311 205 500q182 188 457 188q287 0 471 -201q190 -209 190 -549q0 -352 -190 -563q-182 -203 -480 -203q-268 0 -442 177q-178 178 -211 487h-283v-547q0 -117 -98 -117q-96 0 -96 117zM838 725q0 -279 129 -438 q125 -154 333 -154q217 0 340 156q125 160 125 448q0 276 -125 437q-125 160 -335 159q-215 1 -338 -157q-129 -162 -129 -451z" />
<glyph unicode="&#x42f;" horiz-adv-x="1409" d="M74 57q0 35 67 150l133 223q98 164 240 248q-389 61 -389 389q0 172 104 276q125 123 369 123h471q111 0 137 -24q27 -27 27 -135v-1170q0 -94 -25 -129q-20 -33 -73 -33q-51 0 -74 33q-25 35 -25 129v520h-172q-127 0 -211 -67q-84 -68 -207 -262l-139 -222 q-55 -88 -78 -108q-25 -25 -65 -23q-37 0 -64 25t-26 57zM328 1063q0 -252 366 -252h342v496h-350q-358 0 -358 -244z" />
<glyph unicode="&#x430;" d="M86 279q0 223 223 284q31 8 273 60q217 45 252 57q0 158 -56 217q-53 57 -186 57q-240 0 -299 -147q-35 -86 -88 -86q-33 0 -55 22q-25 23 -25 54q0 106 111 190q131 98 344 98q272 0 364 -120q68 -88 68 -318l-6 -334q-2 -61 24 -163q25 -98 25 -105q0 -27 -25 -47 q-27 -23 -61 -23q-74 0 -119 175q-176 -175 -420 -175q-156 0 -252 88q-92 84 -92 216zM268 291q0 -74 56 -125q55 -51 147 -51q113 0 213 53q96 51 127 141q25 72 25 244q-33 -12 -244 -61t-230 -58q-94 -39 -94 -143z" />
<glyph unicode="&#x431;" horiz-adv-x="1187" d="M98 760q0 438 168 586q133 117 533 116q74 0 92 6q8 2 47 33q33 25 57 25q76 0 76 -68q0 -78 -45 -115q-68 -53 -250 -51l-121 2q-227 2 -311 -90q-86 -92 -90 -344q135 203 362 203q217 0 353 -152q131 -150 131 -383q0 -238 -125 -389q-133 -164 -365 -164 q-336 0 -456 310q-55 141 -56 475zM297 502q0 -180 92 -287q86 -102 221 -102q137 -1 221 116q86 115 87 306q0 184 -87 288q-84 100 -227 101q-141 0 -223 -113q-84 -115 -84 -309z" />
<glyph unicode="&#x432;" horiz-adv-x="1122" d="M152 98v865q0 63 18 81q20 18 80 19h315q410 0 410 -283q0 -152 -125 -227q76 -24 125 -94q49 -72 49 -162q0 -297 -393 -297h-381q-98 0 -98 98zM328 139h239q152 0 215 43q57 37 58 123q0 96 -78 135q-66 31 -213 31h-221v-332zM328 610h194q160 0 221 43q49 33 50 111 q0 88 -60 123q-59 37 -205 37h-200v-314z" />
<glyph unicode="&#x433;" horiz-adv-x="811" d="M152 86v877q0 57 18 77q20 23 80 23h446q90 0 90 -72q0 -68 -90 -67h-368v-838q0 -111 -88 -111t-88 111z" />
<glyph unicode="&#x434;" horiz-adv-x="1206" d="M0 41q0 98 94 98q182 283 182 793q0 76 21 102q20 29 80 29h541q57 0 77 -21q23 -20 23 -79v-824h22q92 0 93 -98v-277q0 -92 -70 -92t-70 92v236h-854v-236q0 -92 -71 -92q-68 0 -68 92v277zM264 139h576v785h-414q-10 -465 -162 -785z" />
<glyph unicode="&#x435;" d="M90 532q0 254 131 402q135 152 371 151q223 0 356 -153q119 -135 119 -322q0 -55 -23 -80q-35 -35 -135 -34h-637q4 -188 97 -291q86 -98 235 -99q117 0 176 48q12 10 99 114q68 82 100 82q68 0 68 -67q0 -88 -111 -187q-137 -121 -340 -121q-240 0 -373 150 q-133 147 -133 407zM274 618h611q-6 160 -88 248q-80 88 -211 88q-127 0 -209 -86q-86 -90 -103 -250z" />
<glyph unicode="&#x436;" horiz-adv-x="1370" d="M0 1014q0 72 88 71q125 0 178 -59q43 -47 90 -199q45 -145 103 -192q39 -33 119 -33v385q0 98 84 98q88 0 88 -98v-385q82 0 120 37q45 45 99 188q51 154 92 201q53 57 176 57q90 0 90 -71q0 -72 -94 -74q-86 -2 -113 -94q-43 -156 -82 -213q-37 -51 -118 -88 q121 -31 229 -215l113 -191q39 -68 38 -94q0 -27 -24 -47q-25 -23 -59 -23q-55 0 -103 80l-160 275q-92 160 -204 162v-418q0 -98 -86 -99q-86 0 -86 99v418q-111 0 -205 -162l-162 -275q-45 -80 -102 -80q-31 0 -58 23q-25 23 -24 49q0 33 36 92l115 191q113 186 230 215 q-84 37 -119 88q-39 55 -84 213q-14 53 -33 69q-25 23 -80 25q-92 4 -92 74z" />
<glyph unicode="&#x437;" horiz-adv-x="956" d="M82 256q0 86 86 86q47 0 78 -66q80 -164 237 -163q90 0 152 55q57 55 57 135q0 76 -51 127q-55 51 -149 51h-33q-78 0 -78 70q0 61 94 67q184 8 184 160q0 76 -51 121q-51 47 -131 47q-131 0 -201 -141q-29 -59 -67 -60q-37 0 -62 27q-25 25 -24 57q0 84 92 164 q106 92 264 92q162 0 264 -94q98 -90 99 -221q0 -131 -125 -207q160 -86 160 -266q0 -145 -103 -231q-106 -90 -293 -91q-180 0 -295 88q-104 82 -104 193z" />
<glyph unicode="&#x438;" horiz-adv-x="1161" d="M152 92v885q0 109 90 108q86 0 86 -108v-754l446 797q35 61 107 65q129 0 129 -116v-883q0 -111 -90 -111q-86 0 -86 111v748l-449 -791q-39 -70 -111 -70q-123 0 -122 119z" />
<glyph unicode="&#x439;" horiz-adv-x="1130" d="M152 92v885q0 109 90 108q86 0 86 -108v-754l446 797q35 61 107 65q129 0 129 -116v-883q0 -111 -90 -111q-86 0 -86 111v748l-449 -791q-39 -70 -111 -70q-123 0 -122 119zM270 1436q0 59 68 59q39 0 55 -47q37 -119 172 -119q133 0 172 119q16 47 54 47q68 0 67 -61 q0 -82 -82 -152q-88 -78 -211 -78t-213 78q-82 72 -82 154z" />
<glyph unicode="&#x43a;" horiz-adv-x="972" d="M152 74v913q0 98 88 98t88 -98v-385q92 0 133 49q43 49 100 221q37 117 88 162q55 51 166 51q90 0 90 -67q0 -63 -94 -70q-88 -8 -113 -96q-47 -166 -90 -225q-33 -47 -110 -82q115 -27 227 -215l115 -191q39 -63 39 -94q0 -27 -25 -47q-25 -23 -59 -23q-55 0 -103 80 l-160 275q-100 162 -204 162v-418q0 -98 -88 -99q-88 0 -88 99z" />
<glyph unicode="&#x43b;" horiz-adv-x="1169" d="M0 53q0 63 82 62l39 -2q57 -2 74 32q16 35 16 164v629q0 125 121 125h565q123 0 123 -125v-852q0 -111 -90 -111q-88 0 -88 111v838h-455v-639q0 -190 -65 -256q-51 -53 -189 -54q-133 0 -133 78z" />
<glyph unicode="&#x43c;" horiz-adv-x="1429" d="M152 80v883q0 70 30 96q31 27 111 26q84 0 108 -14q29 -16 54 -86l266 -772l254 772q20 66 51 84q25 16 98 16q90 0 121 -24q35 -27 35 -98v-883q0 -104 -88 -105q-82 0 -82 105v842l-281 -854q-31 -92 -114 -93q-84 0 -115 93l-278 854v-842q0 -104 -86 -105 q-84 0 -84 105z" />
<glyph unicode="&#x43d;" horiz-adv-x="1161" d="M152 86v891q0 109 90 108q86 0 86 -108v-363h506v363q0 109 90 108q86 0 86 -108v-891q0 -111 -90 -111q-86 0 -86 111v389h-506v-389q0 -111 -90 -111q-86 0 -86 111z" />
<glyph unicode="&#x43e;" horiz-adv-x="1173" d="M86 510q0 274 131 426q131 150 369 149q229 0 364 -145q135 -147 135 -410q0 -262 -139 -409q-133 -145 -360 -146q-229 0 -367 150q-133 147 -133 385zM268 530q0 -193 86 -303q86 -113 234 -112q147 -1 231 112q84 111 84 303q0 195 -84 306q-86 111 -231 110 q-147 0 -234 -112q-86 -111 -86 -304z" />
<glyph unicode="&#x43f;" horiz-adv-x="1138" d="M152 84v854q0 125 120 125h594q123 0 123 -125v-854q0 -109 -92 -109q-86 0 -86 109v840h-483v-840q0 -109 -88 -109t-88 109z" />
<glyph unicode="&#x440;" horiz-adv-x="1259" d="M150 -283v1227q0 141 86 141t86 -120v-64q145 184 376 184q223 0 355 -167q119 -156 118 -398q0 -240 -118 -387q-127 -158 -351 -158q-233 0 -374 185v-441q0 -88 -23 -120q-18 -29 -65 -29q-43 0 -62 20q-29 31 -28 127zM326 541q0 -205 102 -320q94 -106 242 -106 q143 0 231 114q88 113 88 293q0 195 -96 314q-92 111 -229 110q-152 0 -244 -104q-94 -111 -94 -301z" />
<glyph unicode="&#x441;" d="M86 528q0 256 129 406q133 152 377 151q197 0 332 -114q113 -96 112 -187q0 -31 -24 -55q-25 -23 -56 -22q-43 0 -86 71q-100 168 -276 168q-150 0 -240 -110q-90 -111 -90 -299q0 -197 86 -310q88 -113 240 -112q188 0 287 176q55 102 98 102q32 1 57 -22q25 -25 25 -60 q0 -106 -127 -215q-143 -121 -330 -121q-252 0 -385 152q-129 143 -129 401z" />
<glyph unicode="&#x442;" horiz-adv-x="962" d="M25 993q0 70 90 70h733q90 0 90 -72q0 -68 -90 -67h-279v-838q0 -111 -90 -111q-88 0 -88 111v838h-276q-90 0 -90 69z" />
<glyph unicode="&#x443;" horiz-adv-x="1044" d="M45 1004q0 31 27 57q25 25 61 24q59 0 98 -104l291 -793l301 783q29 74 45 94t54 20q33 0 57 -24q23 -23 22 -49q0 -23 -24 -88l-426 -1092q-61 -154 -131 -211q-63 -51 -180 -51q-172 0 -172 92q0 72 69 72l90 -6q96 0 148 131l55 141l-362 920q-23 57 -23 84z" />
<glyph unicode="&#x444;" horiz-adv-x="1708" d="M86 543q0 231 113 385q117 158 305 157q160 0 262 -127v422q0 111 90 111q88 0 88 -111v-422q115 127 268 127q180 0 295 -153q115 -154 115 -400t-121 -403q-117 -154 -295 -154q-145 0 -262 117v-414q0 -106 -90 -106q-88 0 -88 106v414q-106 -117 -262 -117 q-178 0 -295 152q-123 158 -123 416zM270 532q0 -211 76 -319q70 -100 186 -100q233 0 234 405q0 428 -246 428q-116 1 -182 -110q-68 -111 -68 -304zM944 514q0 -401 232 -401q115 0 186 104q78 115 78 322q0 201 -72 307q-68 100 -182 100q-117 0 -172 -86 q-70 -104 -70 -346z" />
<glyph unicode="&#x445;" horiz-adv-x="1044" d="M59 51q0 31 37 80l318 424l-281 365q-43 57 -43 90q0 76 84 75q43 0 100 -75l248 -328l244 328q55 76 104 75q35 0 62 -22q23 -23 22 -49q0 -35 -47 -94l-276 -357l309 -422q45 -59 45 -90t-24 -53q-27 -23 -58 -23q-51 0 -106 76l-275 381l-278 -385q-51 -72 -101 -72 q-37 0 -61 25q-23 23 -23 51z" />
<glyph unicode="&#x446;" horiz-adv-x="1167" d="M152 123v854q0 109 90 108q86 0 86 -108v-838h483v838q0 109 90 108q88 0 88 -108v-838q117 0 117 -123v-358q0 -86 -72 -86q-68 0 -67 86v342h-695q-121 0 -120 123z" />
<glyph unicode="&#x447;" horiz-adv-x="1110" d="M98 784v193q0 109 92 108q86 0 86 -108v-117q0 -188 46 -260q53 -86 213 -86q96 0 245 53v410q0 109 90 108q88 0 88 -108v-891q0 -111 -92 -111q-86 0 -86 111v342q-166 -51 -311 -51q-168 0 -268 106q-102 109 -103 301z" />
<glyph unicode="&#x448;" horiz-adv-x="1662" d="M152 123v854q0 109 90 108q86 0 86 -108v-838h415v838q0 109 91 108q86 0 86 -108v-838h413v838q0 109 90 108q88 0 88 -108v-854q0 -123 -122 -123h-1117q-121 0 -120 123z" />
<glyph unicode="&#x449;" horiz-adv-x="1693" d="M152 123v854q0 109 90 108q86 0 86 -108v-838h415v838q0 109 91 108q86 0 86 -108v-838h413v838q0 109 90 108q88 0 88 -108v-838q119 0 119 -123v-358q0 -86 -69 -86q-70 0 -70 86v342h-1219q-121 0 -120 123z" />
<glyph unicode="&#x44a;" horiz-adv-x="1306" d="M0 993q0 70 90 70h328q121 0 121 -125v-297h229q229 0 352 -92q113 -84 113 -227q0 -137 -96 -222q-111 -100 -326 -100h-328q-123 0 -123 123v801h-270q-90 0 -90 69zM539 139h190q193 0 266 58q53 41 54 125q0 182 -295 182h-215v-365z" />
<glyph unicode="&#x44b;" horiz-adv-x="1488" d="M152 123v854q0 109 90 108q86 0 86 -108v-336h231q236 0 359 -94q106 -86 106 -225q0 -137 -94 -222q-113 -100 -330 -100h-328q-121 0 -120 123zM328 139h192q188 0 262 54q57 41 58 129q0 182 -295 182h-217v-365zM1159 86v891q0 109 90 108q88 0 88 -108v-891 q0 -111 -90 -111q-88 0 -88 111z" />
<glyph unicode="&#x44c;" horiz-adv-x="1097" d="M152 123v854q0 109 90 108q86 0 86 -108v-336h231q236 0 359 -94q106 -86 106 -225q0 -137 -94 -222q-113 -100 -330 -100h-328q-121 0 -120 123zM328 139h192q188 0 262 54q57 41 58 129q0 182 -295 182h-217v-365z" />
<glyph unicode="&#x44d;" horiz-adv-x="1150" d="M94 311q0 35 25 60q25 23 55 22q45 0 96 -94q98 -186 291 -186q274 0 320 344h-306q-90 0 -90 69q0 70 90 70h306q-18 174 -111 264q-84 86 -215 86q-182 0 -276 -168q-41 -72 -84 -71q-33 0 -58 24q-25 23 -24 53q0 92 114 189q135 113 328 112q242 0 377 -149 q133 -147 133 -410q0 -254 -131 -401q-135 -150 -373 -150q-209 0 -350 129q-117 104 -117 207z" />
<glyph unicode="&#x44e;" horiz-adv-x="1554" d="M152 86v891q0 109 90 108q86 0 86 -108v-363h221q25 227 143 351q117 121 307 120q223 0 349 -149q119 -145 118 -401q0 -272 -125 -418q-121 -141 -337 -142q-201 0 -322 134q-119 133 -133 366h-221v-389q0 -111 -88 -111t-88 111zM729 530q0 -197 72 -307 q74 -111 200 -110q283 0 283 409q0 424 -274 424q-281 0 -281 -416z" />
<glyph unicode="&#x44f;" horiz-adv-x="1124" d="M90 57q0 29 45 93l94 137q90 129 168 151q-295 60 -295 314q0 143 99 225q100 86 280 86h371q123 0 123 -125v-852q0 -111 -90 -111q-88 0 -88 111v334h-107q-150 0 -223 -107l-191 -258q-49 -66 -108 -65q-78 0 -78 67zM285 745q0 -96 65 -139q74 -49 246 -49h201v367 h-273q-240 0 -239 -179z" />
<glyph unicode="&#x451;" d="M90 532q0 254 131 402q135 152 371 151q223 0 356 -153q119 -135 119 -322q0 -55 -23 -80q-35 -35 -135 -34h-637q4 -188 97 -291q86 -98 235 -99q117 0 176 48q12 10 99 114q68 82 100 82q68 0 68 -67q0 -88 -111 -187q-137 -121 -340 -121q-240 0 -373 150 q-133 147 -133 407zM274 618h611q-6 160 -88 248q-80 88 -211 88q-127 0 -209 -86q-86 -90 -103 -250zM309 1298q0 39 27 68q29 29 70 29q40 0 69 -29q27 -29 27 -68t-27 -67q-29 -29 -69 -29q-41 0 -70 29q-27 29 -27 67zM647 1298q0 39 27 68q29 29 69 29q41 0 70 -29 q27 -29 27 -68t-27 -67q-29 -29 -70 -29t-69 29q-27 29 -27 67z" />
<glyph unicode="&#x2000;" horiz-adv-x="918" />
<glyph unicode="&#x2001;" horiz-adv-x="1837" />
<glyph unicode="&#x2002;" horiz-adv-x="918" />
<glyph unicode="&#x2003;" horiz-adv-x="1837" />
<glyph unicode="&#x2004;" horiz-adv-x="612" />
<glyph unicode="&#x2005;" horiz-adv-x="459" />
<glyph unicode="&#x2006;" horiz-adv-x="306" />
<glyph unicode="&#x2007;" horiz-adv-x="306" />
<glyph unicode="&#x2008;" horiz-adv-x="229" />
<glyph unicode="&#x2009;" horiz-adv-x="367" />
<glyph unicode="&#x200a;" horiz-adv-x="102" />
<glyph unicode="&#x2010;" horiz-adv-x="681" d="M43 512q0 84 141 84h314q141 0 141 -84t-141 -84h-314q-141 0 -141 84z" />
<glyph unicode="&#x2011;" horiz-adv-x="681" d="M43 512q0 84 141 84h314q141 0 141 -84t-141 -84h-314q-141 0 -141 84z" />
<glyph unicode="&#x2012;" horiz-adv-x="681" d="M43 512q0 84 141 84h314q141 0 141 -84t-141 -84h-314q-141 0 -141 84z" />
<glyph unicode="&#x2013;" horiz-adv-x="1024" d="M-12 446v132h1048v-132h-1048z" />
<glyph unicode="&#x2014;" horiz-adv-x="2048" d="M-12 446v132h2072v-132h-2072z" />
<glyph unicode="&#x2018;" horiz-adv-x="491" d="M127 1190q0 119 55 213q55 90 117 90q47 0 47 -51q0 -23 -41 -62q-51 -51 -53 -129q53 -1 88 -34q31 -31 31 -78q0 -49 -35 -84q-35 -33 -84 -33q-125 0 -125 168z" />
<glyph unicode="&#x2019;" horiz-adv-x="491" d="M127 1374q0 49 35 84q35 33 84 33q125 0 125 -168q0 -119 -56 -213q-55 -90 -116 -90q-47 0 -47 51q0 23 41 62q51 51 53 129q-53 1 -86 34t-33 78z" />
<glyph unicode="&#x201c;" horiz-adv-x="854" d="M119 1188q0 119 55 213q55 90 117 90q47 0 47 -51q0 -23 -41 -62q-51 -51 -53 -129q53 -2 88 -35q31 -31 30 -77q0 -49 -34 -84q-35 -33 -84 -33q-125 0 -125 168zM500 1188q0 119 55 213q55 90 117 90q47 0 47 -51q0 -23 -41 -62q-51 -51 -53 -129q53 -2 88 -35 q31 -31 30 -77q0 -49 -34 -84q-35 -33 -84 -33q-125 0 -125 168z" />
<glyph unicode="&#x201d;" horiz-adv-x="854" d="M113 1374q0 49 34 84q35 33 84 33q125 0 125 -168q0 -119 -55 -213q-55 -90 -117 -90q-47 0 -47 51q0 23 41 62q51 51 53 129q-53 1 -86 34t-32 78zM494 1374q0 49 34 84q35 33 84 33q125 0 125 -168q0 -119 -55 -213q-55 -90 -117 -90q-47 0 -47 51q0 23 41 62 q51 51 53 129q-53 1 -86 34t-32 78z" />
<glyph unicode="&#x2020;" d="M61 944q0 74 123 74h308v313q0 92 22 117q27 27 64 27q57 0 75 -48q10 -27 11 -96v-313h305q123 0 123 -74t-123 -74h-305v-1108q0 -94 -23 -116q-31 -27 -63 -27q-57 0 -76 47q-10 29 -10 96v1108h-308q-123 0 -123 74z" />
<glyph unicode="&#x2021;" d="M61 102q0 49 41 66q23 8 84 8h306v742h-308q-123 0 -123 73q0 74 123 74h308v266q0 94 22 117q33 27 64 27q57 0 75 -48q10 -27 11 -96v-266h305q123 0 123 -74t-123 -73h-305v-742h303q59 0 84 -8q41 -16 41 -66q0 -74 -125 -73h-303v-267q0 -94 -23 -116 q-27 -27 -63 -27q-37 0 -64 27q-23 23 -22 116v267h-306q-125 0 -125 73z" />
<glyph unicode="&#x2022;" horiz-adv-x="724" d="M109 717q-1 106 75 180q74 76 178 76t181 -76q74 -74 73 -180q0 -104 -73 -178q-76 -74 -181 -74q-104 0 -178 74q-76 74 -75 178z" />
<glyph unicode="&#x2026;" horiz-adv-x="2048" d="M227 88q0 47 33 80t80 33t80 -33t33 -80q0 -45 -33 -80q-33 -33 -80 -33t-80 33t-33 80zM911 88q0 47 33 80t80 33t80 -33t33 -80q0 -45 -33 -80q-33 -33 -80 -33t-80 33t-33 80zM1595 88q0 47 33 80t80 33t80 -33t33 -80q0 -45 -33 -80q-33 -33 -80 -33t-80 33t-33 80z " />
<glyph unicode="&#x202f;" horiz-adv-x="367" />
<glyph unicode="&#x2030;" horiz-adv-x="2177" d="M49 1090q0 380 295 380q297 0 297 -364q0 -397 -297 -397q-295 0 -295 381zM180 1090q0 -285 166 -285q94 0 131 78q33 68 33 217q0 274 -164 274q-166 0 -166 -284zM199 -6q0 25 22 53l930 1374q47 68 76 68q53 0 53 -53q0 -23 -39 -76l-926 -1368q-31 -45 -61 -45 q-23 0 -39 18q-16 14 -16 29zM834 369q-1 381 294 381q297 0 297 -365q0 -397 -297 -397q-295 0 -294 381zM965 369q-1 -285 165 -285q94 0 132 78q33 68 32 217q0 274 -164 274q-166 0 -165 -284zM1536 369q0 381 295 381q297 0 297 -365q0 -397 -297 -397q-295 0 -295 381 zM1667 369q0 -285 166 -285q94 0 131 78q33 68 33 217q0 274 -164 274q-166 0 -166 -284z" />
<glyph unicode="&#x2044;" horiz-adv-x="342" d="M-369 -6q0 25 23 53l930 1374q47 68 75 68q53 0 54 -53q0 -23 -39 -76l-926 -1368q-31 -45 -61 -45q-23 0 -39 18q-16 14 -17 29z" />
<glyph unicode="&#x205f;" horiz-adv-x="459" />
<glyph unicode="&#x20ac;" horiz-adv-x="1130" d="M2 598q0 70 88 70h10l-2 51l2 57h-6q-90 0 -90 68q0 70 92 69h19q49 272 237 420q166 133 391 133q139 0 246 -43q113 -45 113 -110q0 -72 -62 -72q-16 0 -110 39q-82 33 -176 33q-166 0 -287 -99q-129 -106 -168 -301h621q94 0 94 -73q0 -63 -92 -64h-639l-2 -59l2 -49 h581q100 0 101 -70q0 -66 -95 -66h-573q37 -193 168 -303q121 -100 280 -100q117 0 240 57q37 14 49 15q68 0 68 -70q0 -80 -146 -123q-106 -33 -202 -33q-272 0 -449 175q-154 150 -192 382h-21q-90 0 -90 66z" />
<glyph unicode="&#x2116;" horiz-adv-x="2281" d="M102 133v1167q0 111 29 154q25 37 86 37q59 0 137 -115l727 -1085l-8 1042q-2 92 23 127q20 31 71 31t72 -31q23 -35 23 -127v-1159q0 -104 -19 -143q-25 -55 -100 -56q-63 0 -144 119l-714 1067l8 -1028q0 -158 -94 -158q-51 0 -72 31q-25 35 -25 127zM1366 76 q0 76 143 76h476q143 0 143 -76t-143 -76h-476q-143 0 -143 76zM1372 782q0 199 103 314q100 117 274 116q170 1 270 -112q104 -117 105 -318q0 -197 -101 -313q-102 -117 -274 -117q-174 0 -274 117q-102 117 -103 313zM1542 782q0 -129 53 -204q55 -82 152 -82 q92 0 147 71q57 74 58 205q0 297 -203 297q-95 0 -150 -72q-57 -76 -57 -215z" />
<glyph unicode="&#x2122;" horiz-adv-x="2048" d="M225 1346v120h666v-120h-266v-695h-136v695h-264zM983 651v815h201l205 -651l198 651h197v-815h-125v684l-209 -684h-123l-219 695v-695h-125z" />
<glyph unicode="&#x2202;" horiz-adv-x="1196" d="M96 371q0 289 172 475q160 172 369 172q201 0 276 -146h5q8 55 8 136q0 342 -283 342q-102 0 -199 -56l-43 127q106 70 269 70q201 0 317 -131q119 -133 119 -377q0 -182 -51 -391q-68 -258 -205 -422q-160 -193 -373 -193q-170 0 -274 109q-106 111 -107 285zM281 362 q0 -109 55 -176q55 -66 145 -65q143 0 256 166q106 160 156 424q-52 172 -234 172q-152 0 -264 -150q-115 -154 -114 -371z" />
<glyph unicode="&#x2206;" horiz-adv-x="1361" d="M39 84q0 27 12 59l479 1248q27 76 97 75h75q66 0 97 -75l510 -1248q14 -31 14 -57q0 -86 -111 -86h-1065q-109 0 -108 84zM258 164h825l-329 868q-70 186 -95 281q-41 -170 -81 -281z" />
<glyph unicode="&#x220f;" horiz-adv-x="1492" d="M172 -471v1905h1149v-1905h-184v1745h-779v-1745h-186z" />
<glyph unicode="&#x2211;" horiz-adv-x="1310" d="M45 -381q113 145 334 436l332 434l-621 842v103h1086v-152h-848l579 -788l-616 -813h934v-152h-1180v90z" />
<glyph unicode="&#x221a;" horiz-adv-x="1075" d="M84 690l254 160l270 -662q57 217 170 654l168 651h135l-198 -758q-131 -506 -199 -760h-147l-283 684q-51 -33 -113 -69q-8 16 -28 51z" />
<glyph unicode="&#x221e;" horiz-adv-x="1630" d="M90 594q0 154 98 250q94 94 244 94q225 0 375 -225h4q150 225 369 225q150 0 247 -92q98 -94 99 -244q0 -148 -92 -246q-96 -100 -248 -100q-233 0 -375 227h-4q-156 -227 -371 -227q-152 0 -248 92q-98 94 -98 246zM242 594q0 -90 57 -148q57 -59 145 -59q160 0 291 211 q-127 207 -293 207q-96 0 -151 -62q-49 -57 -49 -149zM881 598q121 -209 290 -209q100 0 154 64q49 57 49 147q0 88 -49 143q-53 61 -154 62q-160 0 -290 -207z" />
<glyph unicode="&#x222b;" horiz-adv-x="1017" d="M111 -444l36 137q45 -18 95 -19q164 0 164 199v1303q0 166 83 260q86 98 246 98q100 0 154 -29l-21 -67q-12 -45 -20 -68q-37 21 -92 21q-166 0 -166 -201v-1303q0 -166 -84 -260q-86 -96 -242 -96q-98 0 -153 25z" />
<glyph unicode="&#x2248;" horiz-adv-x="1193" d="M125 350q121 176 274 176q106 0 211 -63q109 -66 183 -66q92 0 168 131l110 -122q-115 -176 -274 -177q-111 0 -213 64q-109 66 -181 65q-90 0 -167 -133zM125 807q121 176 274 176q106 0 211 -63q109 -66 183 -66q94 0 168 133l110 -125q-117 -176 -274 -176 q-111 0 -213 64q-109 66 -181 65q-90 0 -167 -133z" />
<glyph unicode="&#x2260;" horiz-adv-x="1193" d="M172 295v168h268l131 291h-399v168h475l115 260h182l-117 -260h195v-168h-270l-131 -291h401v-168h-477l-107 -240h-182l109 240h-193z" />
<glyph unicode="&#x2264;" horiz-adv-x="1193" d="M172 0v168h850v-168h-850zM172 664v141l850 379v-178l-627 -271v-4l627 -272v-176z" />
<glyph unicode="&#x2265;" horiz-adv-x="1193" d="M172 0v168h850v-168h-850zM172 285v178l627 270v4l-627 271v178l850 -381v-141z" />
<glyph unicode="&#x25ca;" horiz-adv-x="1165" d="M96 715l424 719h92q72 -119 213 -359q141 -238 211 -358l-424 -717h-92zM246 717l319 -543l322 543l-322 543z" />
<glyph unicode="&#xe000;" horiz-adv-x="1085" d="M0 0v1085h1085v-1085h-1085z" />
</font>
</defs>
</svg>
